<?xml version="1.0" standalone="no"?>
<!DOCTYPE svg PUBLIC "-//W3C//DTD SVG 1.1//EN" "http://www.w3.org/Graphics/SVG/1.1/DTD/svg11.dtd" >
<svg>
<metadata>
Created by FontForge 20110222 at Tue Nov 11 16:02:51 2014
 By deploy user
(c) 1992, Tilde Ltd. AG Fonts Collection. Created by Andrejs Grinbergs.
</metadata>
<defs>
<font id="Avalanche-Normal" horiz-adv-x="554" >
  <font-face 
    font-family="Avalanche"
    font-weight="400"
    font-stretch="normal"
    units-per-em="1000"
    panose-1="0 0 0 0 0 0 0 0 0 0"
    ascent="800"
    descent="-200"
    x-height="547"
    cap-height="739"
    bbox="-45 -214 1151 931"
    underline-thickness="20"
    underline-position="-123"
    unicode-range="U+0020-2122"
  />
<missing-glyph horiz-adv-x="786" 
d="M49 0v786h688v-786h-688zM688 49v688h-590v-688h590z" />
    <glyph glyph-name=".notdef" horiz-adv-x="786" 
d="M49 0v786h688v-786h-688zM688 49v688h-590v-688h590z" />
    <glyph glyph-name=".null" horiz-adv-x="0" 
 />
    <glyph glyph-name="nonmarkingreturn" horiz-adv-x="277" 
 />
    <glyph glyph-name="space" unicode=" " horiz-adv-x="277" 
 />
    <glyph glyph-name="exclam" unicode="!" horiz-adv-x="295" 
d="M111 126h74v-126h-74v126zM111 739h74v-546h-74v546z" />
    <glyph glyph-name="quotedbl" unicode="&#x22;" horiz-adv-x="309" 
d="M74 739h52v-226h-52v226zM185 739h52v-226h-52v226z" />
    <glyph glyph-name="numbersign" unicode="#" 
d="M154 250h-149l16 58h150l36 123h-149l16 58h151l73 250h42l-72 -250h89l74 250h41l-73 -250h150l-16 -58h-151l-36 -123h150l-17 -58h-151l-73 -250h-43l74 250h-90l-74 -250h-42zM304 308l35 123h-90l-36 -123h91z" />
    <glyph glyph-name="dollar" unicode="$" 
d="M245 29q-70 12 -120 64.5t-50 121.5v12h70q0 -56 38 -95t95 -39q53 0 91.5 37.5t38.5 89.5q0 62 -39 97q-30 27 -96 45q-41 12 -67 23q-36 16 -59.5 40t-36 56t-12.5 69q0 67 40 115t107 60v83h65v-83q72 -10 117 -60t45 -122h-70q0 51 -34.5 84.5t-86.5 33.5
q-23 0 -39.5 -5.5t-33.5 -19.5q-22 -19 -30.5 -39.5t-8.5 -51.5q0 -54 35 -82q23 -18 85 -36q47 -14 70 -24q38 -16 64.5 -42.5t41 -63t14.5 -76.5q0 -73 -49.5 -132.5t-119.5 -59.5v-83h-65v83z" />
    <glyph glyph-name="percent" unicode="%" horiz-adv-x="775" 
d="M513 739h72l-332 -739h-72zM361 576q0 -71 -51 -123t-122 -52t-123 52t-52 125q0 75 50 124t126 49q74 0 123 -51t49 -124zM752 159q0 -72 -51 -122t-123 -50q-71 0 -123 51t-52 122q0 74 51 126t125 52t123.5 -52.5t49.5 -126.5zM84 577q0 -43 30 -74t73 -31
q44 0 73.5 31.5t29.5 77.5q0 41 -29 70t-72 29q-46 0 -75.5 -28.5t-29.5 -74.5zM474 159q0 -42 30.5 -71.5t73.5 -29.5q45 0 74 30t29 75q0 42 -30 73t-72 31q-46 0 -75.5 -30.5t-29.5 -77.5z" />
    <glyph glyph-name="ampersand" unicode="&#x26;" horiz-adv-x="757" 
d="M685 480l-137 -261l187 -182l-53 -50l-169 165q-39 -78 -88 -118q-58 -47 -139 -47q-95 0 -162 67t-67 162q0 74 50 133q42 50 116 87q-40 40 -56 68q-22 38 -22 86q0 66 53 113.5t120 47.5q75 0 128.5 -50t53.5 -125q0 -59 -45 -105q-37 -38 -100 -61l140 -138l107 208
h83zM248 362q-54 -27 -82 -59q-35 -40 -35 -93q0 -61 44.5 -106.5t104.5 -45.5q51 0 88 26q44 31 90 121l-178 174zM322 680q-42 0 -72.5 -26.5t-30.5 -68.5q0 -32 28 -67q13 -17 53 -54q52 18 83 43q43 34 43 79q0 38 -32 66t-72 28z" />
    <glyph glyph-name="quotesingle" unicode="'" horiz-adv-x="198" 
d="M74 739h50v-226h-50v226z" />
    <glyph glyph-name="parenleft" unicode="(" horiz-adv-x="369" 
d="M335 675q-94 -54 -149 -156.5t-55 -214.5q0 -108 56 -211t148 -155v-65q-52 14 -109 64q-47 41 -84 96q-85 124 -85 271q0 146 79 268q39 59 85 101q57 52 114 66v-64z" />
    <glyph glyph-name="parenright" unicode=")" horiz-adv-x="369" 
d="M34 -62q92 52 148 154.5t56 211.5q0 111 -55 214t-149 156v65q57 -16 113 -66q48 -43 86 -101q79 -120 79 -268q0 -149 -85 -271q-37 -54 -84 -96q-56 -50 -109 -64v65z" />
    <glyph glyph-name="asterisk" unicode="*" horiz-adv-x="425" 
d="M360 582h-100l53 -88l-46 -28l-54 90l-52 -90l-48 28l54 88h-103v51h103l-54 90l48 28l52 -90l54 90l46 -28l-53 -90h100v-51z" />
    <glyph glyph-name="plus" unicode="+" horiz-adv-x="606" 
d="M265 554h76v-213h214v-76h-214v-216h-76v216h-214v76h214v213z" />
    <glyph glyph-name="comma" unicode="," horiz-adv-x="277" 
d="M179 126h74l-88 -193h-74z" />
    <glyph glyph-name="hyphen" unicode="-" horiz-adv-x="332" 
d="M302 334v-67h-271v67h271z" />
    <glyph glyph-name="period" unicode="." horiz-adv-x="277" 
d="M101 126h74v-126h-74v126z" />
    <glyph glyph-name="slash" unicode="/" horiz-adv-x="437" 
d="M329 739h68l-291 -867h-66z" />
    <glyph glyph-name="zero" unicode="0" 
d="M30 473q0 63 11.5 105.5t46 84.5t84.5 65t106 23q52 0 99.5 -20t82.5 -59t50 -89.5t15 -109.5v-192q0 -69 -8 -106q-12 -54 -46 -97q-73 -91 -193 -91q-117 0 -190 86q-35 42 -46.5 91.5t-11.5 116.5v192zM451 456q0 61 -8 94.5t-24 56.5q-22 33 -61 53t-80 20
q-44 0 -86 -23t-63 -61q-14 -25 -19.5 -63.5t-5.5 -76.5v-163q0 -56 5.5 -94.5t26.5 -69.5q51 -71 142 -71q100 0 148 82q15 26 20 66.5t5 86.5v163z" />
    <glyph glyph-name="one" unicode="1" 
d="M280 672h-125v67h199v-739h-74v672z" />
    <glyph glyph-name="two" unicode="2" 
d="M33 66l282 272q58 56 78 83q39 53 39 105q0 66 -47.5 110t-114.5 44q-41 0 -78 -21t-58 -56q-12 -21 -16.5 -47t-4.5 -56h-74q0 109 65 180t172 71q49 0 87 -15t72 -49t52.5 -75t18.5 -85q0 -86 -65 -163q-23 -27 -77 -79l-229 -218h367v-67h-469v66z" />
    <glyph glyph-name="three" unicode="3" 
d="M83 555q0 84 52 140t137 56q78 0 131 -55t53 -134q0 -45 -19 -77.5t-57 -61.5q55 -25 89.5 -80.5t34.5 -117.5q0 -99 -69.5 -168.5t-168.5 -69.5q-98 0 -165.5 72.5t-67.5 171.5h74q0 -28 5.5 -50t19.5 -45q23 -36 57.5 -57t74.5 -21q70 0 118 48t48 118q0 52 -30.5 94.5
t-79.5 59.5q-19 7 -36.5 8.5t-51.5 1.5h-12v66l25 -2q59 0 95 27q42 31 42 89q0 50 -33 81t-83 31q-49 0 -79 -37t-30 -88h-74z" />
    <glyph glyph-name="four" unicode="4" 
d="M386 135h-374v67l358 537h90v-537h67v-67h-67v-135h-74v135zM386 637l-287 -435h287v435z" />
    <glyph glyph-name="five" unicode="5" 
d="M133 739h334v-67h-274l-37 -204q60 35 125 35q104 0 175.5 -76.5t71.5 -180.5q0 -107 -71 -183t-177 -76q-105 0 -179.5 71.5t-74.5 173.5h74q0 -70 51 -122t125 -52q77 0 127.5 54.5t50.5 131.5q0 76 -51 132t-126 56q-44 0 -83 -21t-69 -57l-59 21z" />
    <glyph glyph-name="six" unicode="6" 
d="M381 739l-175 -260q38 23 88 23q98 0 168 -80q67 -77 67 -177q0 -49 -19 -96t-53 -84q-74 -78 -182 -78q-104 0 -177 76t-73 181q0 77 42 151q8 14 53 82l175 262h86zM99 249q0 -78 50 -134.5t127 -56.5q74 0 126.5 54.5t52.5 130.5t-52 132t-127 56q-74 0 -125.5 -53.5
t-51.5 -128.5z" />
    <glyph glyph-name="seven" unicode="7" 
d="M412 672h-348v67h426v-67l-302 -672h-80z" />
    <glyph glyph-name="eight" unicode="8" 
d="M81 561q0 83 57.5 136.5t141.5 53.5q81 0 137 -57t56 -138q0 -46 -23.5 -85.5t-64.5 -57.5q57 -25 92 -78.5t35 -116.5q0 -97 -70 -164t-168 -67q-96 0 -164 67t-68 163q0 61 35 118t90 78q-41 20 -63.5 60t-22.5 88zM116 213q0 -65 46 -110t112 -45q68 0 116 46t48 114
q0 66 -48.5 110.5t-114.5 44.5q-67 0 -113 -46t-46 -114zM155 565q0 -52 35.5 -86.5t88.5 -34.5q48 0 84 35t36 83t-35 83t-84 35q-50 0 -87.5 -32.5t-37.5 -82.5z" />
    <glyph glyph-name="nine" unicode="9" 
d="M173 0l175 259q-38 -23 -89 -23q-98 0 -166 78.5t-68 178.5q0 50 19 96.5t53 83.5q74 78 182 78q104 0 177 -76t73 -180q0 -77 -42 -151q-8 -14 -53 -82l-175 -262h-86zM278 310q75 0 126 52t51 127q0 78 -50 134.5t-127 56.5q-74 0 -126.5 -54.5t-52.5 -129.5
t54.5 -130.5t124.5 -55.5z" />
    <glyph glyph-name="colon" unicode=":" horiz-adv-x="277" 
d="M101 126h74v-126h-74v126zM101 510h74v-126h-74v126z" />
    <glyph glyph-name="semicolon" unicode=";" horiz-adv-x="277" 
d="M129 126h74l-88 -193h-74zM129 510h74v-126h-74v126z" />
    <glyph glyph-name="less" unicode="&#x3c;" horiz-adv-x="606" 
d="M558 110v-73l-509 232v64l509 232v-73l-414 -191z" />
    <glyph glyph-name="equal" unicode="=" horiz-adv-x="606" 
d="M555 361h-504v75h504v-75zM555 166h-504v75h504v-75z" />
    <glyph glyph-name="greater" unicode="&#x3e;" horiz-adv-x="606" 
d="M462 301l-414 191v73l509 -232v-64l-509 -232v73z" />
    <glyph glyph-name="question" unicode="?" horiz-adv-x="591" 
d="M264 126h74v-126h-74v126zM65 508v21q0 42 18.5 83.5t51 73t75.5 48.5t92 17q96 0 159.5 -64.5t63.5 -160.5q0 -64 -48 -120q-45 -47 -90 -93q-49 -57 -49 -120h-74q0 58 30 112q27 47 73 89.5t59 60.5q25 35 25 79q0 62 -47 104t-109 42q-67 0 -113 -51t-46 -121h-71z
" />
    <glyph glyph-name="at" unicode="@" horiz-adv-x="867" 
d="M780 176q-47 -86 -136.5 -137t-190.5 -51q-162 0 -272 112t-110 273q0 158 112.5 268.5t270.5 110.5q136 0 237 -87q106 -92 106 -232q0 -101 -59 -184q-35 -49 -75 -77q-48 -33 -101 -33q-29 0 -53.5 13t-33.5 40q-48 -51 -120 -51q-63 0 -101.5 43.5t-38.5 107.5
q0 109 69 203q76 103 181 103q37 0 67.5 -17t45.5 -50l15 47h68l-102 -305q-3 -9 -8 -26.5t-5 -25.5q0 -29 30 -29q31 0 68 27q30 22 53 54q51 73 51 164q0 118 -91 194q-86 72 -206 72q-138 0 -233.5 -99.5t-95.5 -237.5q0 -137 97 -233t234 -96q80 0 150.5 36t116.5 102z
M485 294q21 42 36.5 88t15.5 83q0 30 -19.5 51.5t-50.5 21.5q-74 0 -128 -86q-47 -75 -47 -155q0 -38 21 -65t57 -27t69 29q28 24 46 60z" />
    <glyph glyph-name="A" unicode="A" horiz-adv-x="740" 
d="M330 739h82l317 -739h-80l-107 248h-344l-107 -248h-80zM513 315l-142 339l-144 -339h286z" />
    <glyph glyph-name="B" unicode="B" horiz-adv-x="574" 
d="M76 739h173q53 0 93 -7t77.5 -31.5t61 -67t23.5 -90.5q0 -46 -21.5 -83.5t-60.5 -64.5q58 -24 90 -73t32 -113q0 -51 -24.5 -96.5t-67 -72.5t-97.5 -35q-35 -5 -105 -5h-174v739zM241 67h19q56 0 86 5.5t51 16.5q32 17 52 50t20 69q0 48 -24 82.5t-68 50.5
q-30 10 -74 12.5t-56 2.5h-19h-78v-289h91zM230 423h18q50 0 76 5.5t46 16.5q26 14 43 43t17 60t-16 58t-43 44q-21 13 -52 17.5t-66 4.5h-17h-86v-249h80z" />
    <glyph glyph-name="C" unicode="C" horiz-adv-x="813" 
d="M685 549q-40 62 -110.5 96.5t-147.5 34.5q-125 0 -217 -93t-92 -215q0 -129 93.5 -221.5t220.5 -92.5q75 0 143.5 36.5t112.5 98.5h82q-48 -92 -141 -149t-197 -57q-163 0 -275.5 110.5t-112.5 274.5q0 157 112 268t270 111q120 0 213 -62q39 -25 74 -61q40 -42 54 -79
h-82z" />
    <glyph glyph-name="D" unicode="D" horiz-adv-x="744" 
d="M76 739h199q89 0 159 -18.5t132 -69t98 -125t36 -155.5q0 -78 -31.5 -150t-91.5 -126.5t-137 -76.5q-64 -18 -160 -18h-204v739zM245 67q94 0 139 9q72 14 128 59q114 89 114 236q0 143 -115 234q-55 43 -126 57q-50 10 -140 10h-95v-605h95z" />
    <glyph glyph-name="E" unicode="E" horiz-adv-x="536" 
d="M76 739h404v-67h-330v-266h319v-67h-319v-272h330v-67h-404v739z" />
    <glyph glyph-name="F" unicode="F" horiz-adv-x="485" 
d="M76 739h375v-67h-301v-267h290v-67h-290v-338h-74v739z" />
    <glyph glyph-name="G" unicode="G" horiz-adv-x="872" 
d="M831 341q0 -148 -121 -253q-116 -101 -270 -101q-161 0 -278.5 112.5t-117.5 273.5q0 73 30.5 143t83.5 122q57 56 129 84.5t153 28.5q121 0 217 -63q42 -28 75 -63q41 -43 54 -83h-84q-38 64 -110 101t-152 37q-62 0 -118 -20.5t-102 -63t-74 -102t-28 -122.5
q0 -133 95.5 -223.5t229.5 -90.5q101 0 186 60t113 156h-413v67h502z" />
    <glyph glyph-name="H" unicode="H" horiz-adv-x="683" 
d="M76 739h74v-325h383v325h74v-739h-74v347h-383v-347h-74v739z" />
    <glyph glyph-name="I" unicode="I" horiz-adv-x="226" 
d="M76 739h74v-739h-74v739z" />
    <glyph glyph-name="J" unicode="J" horiz-adv-x="482" 
d="M406 208q0 -54 -5 -78q-8 -36 -36 -71.5t-68.5 -53.5t-88.5 -18q-82 0 -139.5 54t-57.5 134h73q0 -52 38 -84.5t93 -32.5q38 0 66.5 19t41.5 55q6 18 7.5 41.5t1.5 56.5v509h74v-531z" />
    <glyph glyph-name="K" unicode="K" horiz-adv-x="591" 
d="M76 739h74v-425l341 425h94l-292 -360l292 -379h-92l-247 320l-96 -118v-202h-74v739z" />
    <glyph glyph-name="L" unicode="L" horiz-adv-x="462" 
d="M76 739h74v-672h306v-67h-380v739z" />
    <glyph glyph-name="M" unicode="M" horiz-adv-x="919" 
d="M76 739h114l270 -629l269 629h114v-739h-74v657l-278 -657h-63l-278 657v-657h-74v739z" />
    <glyph glyph-name="N" unicode="N" horiz-adv-x="740" 
d="M76 739h100l414 -613v613h74v-739h-74l-440 650v-650h-74v739z" />
    <glyph glyph-name="O" unicode="O" horiz-adv-x="869" 
d="M825 371q0 -160 -115 -272t-276 -112q-157 0 -273.5 110.5t-116.5 268.5q0 160 114 272t276 112q158 0 274.5 -110.5t116.5 -268.5zM118 366q0 -127 94.5 -217.5t222.5 -90.5q131 0 223.5 91.5t92.5 221.5q0 128 -94 218t-222 90q-132 0 -224.5 -91.5t-92.5 -221.5z" />
    <glyph glyph-name="P" unicode="P" horiz-adv-x="592" 
d="M76 739h194q70 0 113 -6.5t85 -33.5q97 -61 97 -182q0 -109 -84 -171q-39 -29 -91 -40q-38 -8 -101 -8h-139v-298h-74v739zM277 365q62 0 93 7.5t56 22.5q31 19 48 52.5t17 70.5q0 100 -92 138q-25 10 -49 13.5t-57 3.5q-12 0 -24 -0.5t-24 -0.5h-95v-307h127z" />
    <glyph glyph-name="Q" unicode="Q" horiz-adv-x="871" 
d="M827 -13h-9q-90 0 -156 63q-44 -30 -104.5 -46.5t-117.5 -16.5q-160 0 -278 109t-118 268q0 167 115 277t283 110q169 0 283 -110t114 -279q0 -77 -32.5 -147t-91.5 -124q22 -16 47 -26t49 -10l16 1v-69zM566 132q-36 28 -59 43q-32 21 -68 33.5t-80.5 20.5t-84.5 8
q-35 0 -59.5 -4.5t-54.5 -16.5q14 -28 45 -59q28 -28 58 -48q40 -26 86 -38.5t97 -12.5q43 0 84.5 10.5t74.5 33.5zM288 306q112 0 204 -43q79 -37 172 -121q46 43 73.5 101t27.5 120q0 135 -94 226t-230 91q-134 0 -228.5 -91.5t-94.5 -225.5q0 -34 2 -47t10 -37
q77 27 158 27z" />
    <glyph glyph-name="R" unicode="R" horiz-adv-x="607" 
d="M76 739h176q76 0 121 -5.5t89 -30.5q56 -32 85.5 -85t29.5 -120q0 -90 -64 -156t-154 -66l208 -276h-92l-251 335h22h20q53 0 81 3t60 17q46 21 71 60t25 90q0 39 -18.5 74.5t-50.5 58t-72.5 28.5t-94.5 6h-117v-672h-74v739z" />
    <glyph glyph-name="S" unicode="S" horiz-adv-x="498" 
d="M101 207q0 -61 43 -105t105 -44q64 0 108.5 41.5t44.5 104.5q0 29 -14 57.5t-37 47.5t-54 31q-18 7 -64 19t-64 19q-37 14 -62 36q-62 53 -62 138q0 88 60.5 143.5t149.5 55.5q84 0 143.5 -57.5t59.5 -142.5h-77q0 56 -38.5 92.5t-96.5 36.5q-53 0 -90 -38t-37 -91
q0 -59 46 -91q28 -19 97.5 -38.5t77.5 -22.5q38 -14 67 -41q69 -60 69 -155q0 -91 -66.5 -153.5t-158.5 -62.5q-97 0 -163 62t-66 158h79z" />
    <glyph glyph-name="T" unicode="T" horiz-adv-x="426" 
d="M177 672h-170v67h412v-67h-168v-672h-74v672z" />
    <glyph glyph-name="U" unicode="U" horiz-adv-x="655" 
d="M150 739v-449q0 -47 7 -85t28.5 -72t60 -54.5t82.5 -20.5q40 0 76.5 17.5t60.5 50t32 72t8 92.5v449h74v-449q0 -68 -9 -109q-12 -56 -46 -100.5t-85.5 -69t-110.5 -24.5q-120 0 -193 88q-34 42 -46.5 96t-12.5 119v449h74z" />
    <glyph glyph-name="V" unicode="V" horiz-adv-x="702" 
d="M10 739h81l259 -647l261 647h81l-307 -739h-70z" />
    <glyph glyph-name="W" unicode="W" horiz-adv-x="960" 
d="M10 739h77l181 -644l177 644h70l177 -643l181 643h77l-211 -739h-97l-162 606l-163 -606h-97z" />
    <glyph glyph-name="X" unicode="X" horiz-adv-x="609" 
d="M259 378l-236 361h86l196 -296l195 296h86l-239 -361l254 -378h-87l-209 316l-210 -316h-87z" />
    <glyph glyph-name="Y" unicode="Y" horiz-adv-x="592" 
d="M259 247l-257 492h81l213 -415l213 415h81l-257 -492v-247h-74v247z" />
    <glyph glyph-name="Z" unicode="Z" horiz-adv-x="480" 
d="M17 66l363 606h-352v67h435v-67l-362 -605h373v-67h-457v66z" />
    <glyph glyph-name="bracketleft" unicode="[" horiz-adv-x="351" 
d="M313 -127q-38 9 -71 29.5t-61 51.5q-40 45 -54.5 92t-14.5 114v289q0 66 10.5 106.5t45.5 85.5q28 34 64 60q41 29 81 38v-76q-71 -31 -100 -81.5t-29 -132.5v-277q0 -89 24 -135q28 -54 105 -88v-76z" />
    <glyph glyph-name="backslash" unicode="\" horiz-adv-x="605" 
d="M84 739h71l309 -739h-70z" />
    <glyph glyph-name="bracketright" unicode="]" horiz-adv-x="351" 
d="M38 739q38 -10 71.5 -30.5t60.5 -51.5q40 -45 56 -96q13 -43 13 -110v-289q0 -62 -11 -105t-46 -87q-27 -35 -66 -62.5t-78 -34.5v76q71 29 100 80t29 133v276q0 58 -4 79q-7 36 -32 72q-17 26 -39 43t-54 31v76z" />
    <glyph glyph-name="asciicircum" unicode="^" horiz-adv-x="606" 
d="M18 180l255 559h58l257 -559h-64l-223 484l-219 -484h-64z" />
    <glyph glyph-name="underscore" unicode="_" horiz-adv-x="500" 
d="M0 -125v58h500v-58h-500z" />
    <glyph glyph-name="grave" unicode="`" horiz-adv-x="378" 
d="M304 671l-33 -58l-197 106l32 60z" />
    <glyph glyph-name="a" unicode="a" horiz-adv-x="683" 
d="M620 0h-71v103q-31 -56 -87.5 -86t-124.5 -30q-64 0 -127 29t-114 87q-18 20 -34 64q-20 55 -20 110q0 50 21 104q18 45 36 62q59 63 117 89.5t119 26.5q69 0 126.5 -29t87.5 -87v104h71v-547zM116 271q0 -89 66 -151t155 -62q86 0 149 63t63 149q0 91 -61.5 154.5
t-152.5 63.5q-90 0 -154.5 -63.5t-64.5 -153.5z" />
    <glyph glyph-name="b" unicode="b" horiz-adv-x="682" 
d="M63 739h74v-294q26 54 84.5 84t122.5 30q122 0 209 -81t87 -202q0 -55 -19.5 -104t-45.5 -78q-55 -62 -110 -86q-48 -21 -114 -21q-62 0 -122 27q-66 30 -96 80v-94h-70v739zM190 422q-31 -31 -44.5 -68.5t-13.5 -84.5q0 -90 63.5 -150.5t155.5 -60.5q89 0 152 63t63 153
q0 92 -64 153t-156 61q-45 0 -84.5 -17t-71.5 -49z" />
    <glyph glyph-name="c" unicode="c" horiz-adv-x="647" 
d="M607 160q-37 -81 -107 -127t-159 -46q-124 0 -211.5 81.5t-87.5 205.5q0 120 87.5 202.5t208.5 82.5q90 0 164 -47.5t106 -130.5h-83q-29 49 -79 78t-107 29q-93 0 -158 -60.5t-65 -152.5t62.5 -154.5t154.5 -62.5q63 0 109 25.5t83 76.5h82z" />
    <glyph glyph-name="d" unicode="d" horiz-adv-x="685" 
d="M622 0h-70v100q-81 -113 -221 -113q-60 0 -116 26.5t-113 86.5q-22 19 -41 69t-19 106q0 121 86.5 202.5t207.5 81.5q64 0 121.5 -27.5t90.5 -79.5v287h74v-739zM331 488q-88 0 -151.5 -61.5t-63.5 -150.5q0 -90 63 -154t154 -64q89 0 153 64t64 154q0 89 -64.5 150.5
t-154.5 61.5z" />
    <glyph glyph-name="e" unicode="e" horiz-adv-x="650" 
d="M116 247q0 -76 64 -132.5t142 -56.5q62 0 117 32.5t79 87.5h77q-29 -84 -103.5 -137.5t-162.5 -53.5q-119 0 -203 83t-84 203q0 119 82.5 202.5t202.5 83.5q64 0 121 -27.5t99 -78.5q36 -44 50 -93t14 -113h-495zM537 314q-14 73 -73.5 123.5t-135.5 50.5q-78 0 -138 -49
t-74 -125h421z" />
    <glyph glyph-name="f" unicode="f" horiz-adv-x="314" 
d="M101 480h-85v67h85q0 92 52 142t143 50h14v-67h-14q-58 0 -89.5 -28.5t-31.5 -85.5v-11h136v-67h-136v-480h-74v480z" />
    <glyph glyph-name="g" unicode="g" horiz-adv-x="673" 
d="M610 78q0 -74 -9 -108q-13 -50 -53.5 -93.5t-99 -67t-118.5 -23.5q-92 0 -169 55.5t-99 145.5h72q33 -63 83 -96.5t119 -33.5q54 0 103.5 25t75.5 70q16 29 20 55t4 71v30q-25 -58 -88 -91q-58 -30 -126 -30q-55 0 -105.5 21t-91.5 59q-86 82 -86 205q0 54 18 105
q15 43 34 64q51 64 111 93q52 25 116 25q69 0 128 -30t90 -88v106h71v-469zM116 279q0 -93 59 -157t151 -64q46 0 82 14.5t68 47.5q28 29 45 70.5t17 82.5q0 93 -63 154t-156 61q-85 0 -144 -62t-59 -147z" />
    <glyph glyph-name="h" unicode="h" horiz-adv-x="610" 
d="M63 739h74v-271q23 43 68.5 67t97.5 24q114 0 187 -84q33 -38 45 -83t12 -104v-288h-74v288q0 44 -6 73.5t-26 57.5q-23 32 -61.5 50.5t-79.5 18.5q-39 0 -75.5 -18t-59.5 -49q-18 -25 -23 -57t-5 -76v-288h-74v739z" />
    <glyph glyph-name="i" unicode="i" horiz-adv-x="200" 
d="M63 547h74v-547h-74v547zM63 739h74v-126h-74v126z" />
    <glyph glyph-name="j" unicode="j" horiz-adv-x="203" 
d="M140 50q0 -73 -5 -98q-10 -50 -45 -87q-54 -57 -135 -57v72q71 0 95 53q16 35 16 117v497h74v-497zM66 739h74v-126h-74v126z" />
    <glyph glyph-name="k" unicode="k" horiz-adv-x="502" 
d="M63 739h74v-519l251 327h95l-212 -274l226 -273h-95l-178 216l-87 -112v-104h-74v739z" />
    <glyph glyph-name="l" unicode="l" horiz-adv-x="200" 
d="M63 739h74v-739h-74v739z" />
    <glyph glyph-name="m" unicode="m" horiz-adv-x="938" 
d="M63 547h70v-71q20 41 58.5 62t87.5 21q55 0 99 -21t78 -62l14 -21l11 21q28 39 75.5 61t97.5 22q44 0 86 -20.5t84 -62.5q30 -30 42 -74q9 -34 9 -90v-312h-74v305q0 39 -5 66.5t-22 51.5q-46 65 -124 65q-77 0 -121 -62q-15 -21 -19 -50.5t-4 -70.5v-305h-74v313
q0 36 -5 60t-21 49q-46 66 -123 66q-37 0 -67.5 -14.5t-52.5 -43.5q-16 -24 -21 -51.5t-5 -65.5v-313h-74v547z" />
    <glyph glyph-name="n" unicode="n" horiz-adv-x="610" 
d="M63 547h70v-79q65 91 170 91q56 0 106.5 -23t87.5 -68q29 -37 41 -84q9 -36 9 -96v-288h-74v288q0 54 -8 81t-24 49q-50 70 -141 70q-40 0 -75.5 -17.5t-58.5 -49.5q-19 -25 -24 -57t-5 -76v-288h-74v547z" />
    <glyph glyph-name="o" unicode="o" horiz-adv-x="655" 
d="M613 277q0 -118 -83 -204t-201 -86t-202.5 82.5t-84.5 200.5q0 120 83.5 204.5t203.5 84.5q114 0 199 -84t85 -198zM116 270q0 -88 62 -150t151 -62q90 0 150 64t60 155q0 46 -15.5 82.5t-48.5 68.5q-63 60 -146 60q-90 0 -151.5 -63.5t-61.5 -154.5z" />
    <glyph glyph-name="p" unicode="p" horiz-adv-x="682" 
d="M133 547v-94q30 50 92.5 78t125.5 28t117 -24.5t107 -81.5q27 -24 46 -74t19 -108q0 -121 -87.5 -202.5t-208.5 -81.5q-64 0 -120 29q-61 32 -87 86v-294h-74v739h70zM566 272q0 89 -62.5 152.5t-152.5 63.5q-91 0 -155 -60t-64 -150q0 -49 12.5 -84.5t45.5 -68.5
q64 -67 156 -67t156 61t64 153z" />
    <glyph glyph-name="q" unicode="q" horiz-adv-x="682" 
d="M619 -192h-74v294q-26 -55 -84 -85t-123 -30q-121 0 -208.5 81.5t-87.5 202.5q0 58 19 107.5t45 74.5q48 56 104.5 81t120.5 25t125.5 -27.5t92.5 -78.5v94h70v-739zM493 125q30 31 43.5 69t13.5 84q0 89 -63.5 149.5t-155.5 60.5q-89 0 -152 -63t-63 -153
q0 -91 63.5 -152.5t156.5 -61.5t157 67z" />
    <glyph glyph-name="r" unicode="r" horiz-adv-x="301" 
d="M63 547h70v-79q21 47 63 69t96 22v-73q-54 0 -99 -38q-35 -30 -45.5 -60t-10.5 -82v-306h-74v547z" />
    <glyph glyph-name="s" unicode="s" horiz-adv-x="388" 
d="M92 161q0 -42 28.5 -72.5t70.5 -30.5q41 0 68.5 25.5t27.5 65.5q0 45 -32 71q-25 20 -68.5 33t-57.5 19q-29 12 -48.5 30.5t-31 45.5t-11.5 58q0 66 45.5 109.5t112.5 43.5q61 0 106 -44t45 -104h-74q0 35 -24 56t-61 21q-32 0 -54 -22t-22 -54q0 -40 30 -62
q20 -14 66 -29q74 -24 107 -52q46 -40 46 -108q0 -77 -49.5 -125.5t-127.5 -48.5q-69 0 -117.5 51.5t-48.5 122.5h74z" />
    <glyph glyph-name="t" unicode="t" horiz-adv-x="339" 
d="M126 480h-114v67h114v192h74v-192h127v-67h-127v-480h-74v480z" />
    <glyph glyph-name="u" unicode="u" horiz-adv-x="608" 
d="M545 0h-70v85q-26 -50 -73 -74t-108 -24q-56 0 -101 22t-91 76q-23 24 -31 66.5t-8 106.5v289h74v-289q0 -52 5.5 -75.5t18.5 -45.5q46 -79 143 -79q84 0 134 67q19 27 26 59t7 74v289h74v-547z" />
    <glyph glyph-name="v" unicode="v" 
d="M8 547h80l189 -453l189 453h80l-231 -547h-77z" />
    <glyph glyph-name="w" unicode="w" horiz-adv-x="831" 
d="M7 547h78l172 -458l127 391h61l126 -391l175 458h78l-208 -547h-85l-117 363l-115 -363h-85z" />
    <glyph glyph-name="x" unicode="x" horiz-adv-x="480" 
d="M195 278l-187 269h87l145 -211l145 211h87l-188 -269l188 -278h-87l-145 219l-145 -219h-87z" />
    <glyph glyph-name="y" unicode="y" horiz-adv-x="536" 
d="M527 547l-316 -739h-78l86 209l-210 530h79l175 -436l185 436h79z" />
    <glyph glyph-name="z" unicode="z" horiz-adv-x="425" 
d="M10 65l296 415h-286v67h376v-67l-294 -413h313v-67h-405v65z" />
    <glyph glyph-name="braceleft" unicode="{" horiz-adv-x="351" 
d="M119 588q0 86 31.5 118.5t120.5 32.5q-44 -13 -62 -40.5t-18 -74.5v-178q0 -62 -15 -90q-20 -36 -75 -50q53 -11 73 -42q17 -27 17 -85v-191q0 -49 16.5 -75t63.5 -40q-42 0 -66 4t-48 22t-31 44t-7 64v190v11q0 23 -3.5 35.5t-17.5 30.5q-24 27 -61 32q19 5 29 9.5
t24 15.5q21 16 25 33.5t4 54.5v169z" />
    <glyph glyph-name="bar" unicode="|" horiz-adv-x="672" 
d="M304 739h64v-739h-64v739z" />
    <glyph glyph-name="braceright" unicode="}" horiz-adv-x="351" 
d="M115 624q0 46 -17.5 74t-59.5 41q88 0 118.5 -32.5t30.5 -118.5v-169q0 -44 6.5 -59t23.5 -29q11 -9 23.5 -15t28.5 -10q-36 -5 -60 -32q-15 -17 -18.5 -33t-3.5 -44v-190q0 -40 -5 -59q-8 -31 -32.5 -49t-46.5 -22t-65 -4q44 14 60.5 40t16.5 75v191q0 57 18.5 86.5
t71.5 40.5q-54 13 -74 50q-16 30 -16 90v178z" />
    <glyph glyph-name="asciitilde" unicode="~" horiz-adv-x="606" 
d="M555 344q-27 -49 -57 -76q-39 -35 -85 -35q-28 0 -86 23q-37 16 -49 21q-22 9 -44.5 17t-39.5 8q-41 0 -73 -43q-9 -12 -29 -47l-41 48q30 55 56 80q39 38 87 38q38 0 117 -35t103 -35q30 0 59 28q22 21 40 55z" />
    <glyph glyph-name="quotesinglbase" unicode="&#x201a;" horiz-adv-x="354" 
d="M177 126h74l-88 -193h-74z" />
    <glyph glyph-name="quotedblbase" unicode="&#x201e;" horiz-adv-x="502" 
d="M177 126h74l-88 -193h-74zM325 126h73l-87 -193h-74z" />
    <glyph glyph-name="ellipsis" unicode="&#x2026;" horiz-adv-x="1000" 
d="M130 126h74v-126h-74v126zM463 126h74v-126h-74v126zM796 126h74v-126h-74v126z" />
    <glyph glyph-name="dagger" unicode="&#x2020;" horiz-adv-x="553" 
d="M313 539h181v-67h-181v-599h-74v599h-180v67h180v200h74v-200z" />
    <glyph glyph-name="daggerdbl" unicode="&#x2021;" horiz-adv-x="553" 
d="M313 562h181v-69h-181v-94h181v-66h-181v-461h-73v461h-181v66h181v94h-181v69h181v177h73v-177z" />
    <glyph glyph-name="perthousand" unicode="&#x2030;" horiz-adv-x="1174" 
d="M513 739h72l-332 -739h-72zM361 572q0 -71 -51 -121t-122 -50q-72 0 -123.5 50.5t-51.5 122.5q0 75 50 126t126 51q73 0 122.5 -52.5t49.5 -126.5zM752 159q0 -72 -51 -122t-123 -50q-71 0 -123 51t-52 122q0 74 51 126t125 52t123.5 -52.5t49.5 -126.5zM1151 159
q0 -72 -51 -122t-123 -50q-71 0 -123 51t-52 122q0 74 51 126t125 52t123.5 -52.5t49.5 -126.5zM474 155q0 -42 30.5 -69.5t73.5 -27.5q45 0 74 28t29 73q0 43 -30.5 75.5t-71.5 32.5q-46 0 -75.5 -32.5t-29.5 -79.5zM84 573q0 -43 30 -72t73 -29q45 0 74 30t29 75
q0 42 -29.5 72.5t-71.5 30.5q-47 1 -76 -29.5t-29 -77.5zM873 156q0 -42 30 -70t73 -28q45 0 74.5 28.5t29.5 72.5q0 43 -30.5 75.5t-71.5 32.5q-46 0 -75.5 -32.5t-29.5 -78.5z" />
    <glyph glyph-name="guilsinglleft" unicode="&#x2039;" horiz-adv-x="251" 
d="M40 301l113 199l58 -31l-94 -168l94 -168l-58 -32z" />
    <glyph glyph-name="quoteleft" unicode="&#x2018;" horiz-adv-x="351" 
d="M186 546l-88 193h74l88 -193h-74z" />
    <glyph glyph-name="quoteright" unicode="&#x2019;" horiz-adv-x="351" 
d="M179 739h74l-88 -193h-74z" />
    <glyph glyph-name="quotedblleft" unicode="&#x201c;" horiz-adv-x="502" 
d="M332 546l-88 193h74l88 -193h-74zM184 546l-88 193h74l88 -193h-74z" />
    <glyph glyph-name="quotedblright" unicode="&#x201d;" horiz-adv-x="484" 
d="M171 739h74l-88 -193h-70zM319 739h74l-88 -193h-74z" />
    <glyph glyph-name="bullet" unicode="&#x2022;" horiz-adv-x="606" 
d="M302 116q-76 0 -130 54t-54 130q0 77 53.5 131.5t130.5 54.5q78 0 132 -54t54 -132q0 -76 -54 -130t-132 -54z" />
    <glyph glyph-name="endash" unicode="&#x2013;" horiz-adv-x="500" 
d="M500 334v-67h-500v67h500z" />
    <glyph glyph-name="emdash" unicode="&#x2014;" horiz-adv-x="1000" 
d="M1000 334v-67h-1000v67h1000z" />
    <glyph glyph-name="trademark" unicode="&#x2122;" horiz-adv-x="1000" 
d="M938 318h-66v361l-146 -361h-39l-142 361v-361h-67v421h108l121 -297l125 297h106v-421zM404 679h-133v-361h-74v361h-134v60h341v-60z" />
    <glyph glyph-name="guilsinglright" unicode="&#x203a;" horiz-adv-x="251" 
d="M40 133l94 168l-94 168l58 31l113 -199l-113 -200z" />
    <glyph glyph-name="nonbreakingspace" unicode="&#xa0;" horiz-adv-x="500" 
 />
    <glyph glyph-name="sterling" unicode="&#xa3;" horiz-adv-x="482" 
d="M406 208q0 -54 -5 -78q-8 -36 -36 -71.5t-68.5 -53.5t-88.5 -18q-82 0 -139.5 54t-57.5 134h73q0 -52 38 -84.5t93 -32.5q38 0 66.5 19t41.5 55q6 18 7.5 41.5t1.5 56.5v509h74v-531z" />
    <glyph glyph-name="currency" unicode="&#xa4;" 
d="M74 152q-48 71 -48 148q0 44 11 79.5t37 71.5l-43 43l52 53l44 -43q65 49 154 49q40 0 75.5 -12.5t70.5 -36.5l44 43l52 -53l-43 -43q48 -69 48 -156q0 -72 -48 -143l43 -42l-52 -53l-44 43q-68 -50 -155 -50q-40 0 -75 12.5t-70 37.5l-44 -43l-52 53zM281 481
q-78 0 -130.5 -51.5t-52.5 -129.5q0 -72 52 -125t125 -53q75 0 128 52t53 129q0 72 -51 125t-124 53z" />
    <glyph glyph-name="section" unicode="&#xa7;" horiz-adv-x="615" 
d="M412 606q0 34 -37 56q-31 18 -69 18q-43 0 -71.5 -24.5t-28.5 -67.5q0 -32 21 -55q15 -17 49 -33l126 -63q60 -29 86 -54q41 -38 41 -91q0 -40 -23 -82t-58 -63q24 -19 38 -48t14 -60q0 -80 -55 -129t-136 -49q-86 0 -145 59t-59 145h70q0 -56 38.5 -94.5t95.5 -38.5
q52 0 84 26q36 29 36 79q0 37 -35 66q-18 15 -68 40l-162 84q-36 18 -55 44q-22 29 -22 67q0 47 23 85.5t65 67.5q-18 16 -29 44.5t-11 54.5q0 70 49 115.5t120 45.5q68 0 120 -38q58 -42 58 -107h-70zM400 182q24 13 41 41t17 55q0 35 -22 58q-15 16 -54 35l-164 83
q-26 -15 -43 -44t-17 -60q0 -23 12.5 -41.5t52.5 -38.5z" />
    <glyph glyph-name="dieresis" unicode="&#xa8;" horiz-adv-x="536" 
d="M232 931v-126h-74v126h74zM379 931v-126h-74v126h74zM76 739h404v-67h-330v-266h319v-67h-319v-272h330v-67h-404v739z" />
    <glyph glyph-name="copyright" unicode="&#xa9;" horiz-adv-x="747" 
d="M-9 370q0 157 112 269t271 112t270 -111t111 -270t-111 -271t-270 -112t-271 112t-112 271zM709 370q0 139 -98 237t-237 98q-140 0 -238 -98t-98 -237q0 -140 97.5 -238.5t238.5 -98.5q139 0 237 98t98 239zM568 300q-7 -67 -58 -107.5t-119 -40.5q-95 0 -153.5 62.5
t-58.5 158.5q0 97 56 158t153 61q70 0 119.5 -38.5t60.5 -105.5h-55q-8 45 -42.5 72t-81.5 27q-73 0 -113.5 -49t-40.5 -124q0 -72 42.5 -124t113.5 -52q46 0 81 28t41 74h55z" />
    <glyph glyph-name="guillemotleft" unicode="&#xab;" horiz-adv-x="425" 
d="M40 301l113 199l58 -31l-94 -168l94 -168l-58 -32zM213 301l113 199l59 -31l-94 -168l94 -168l-59 -32z" />
    <glyph glyph-name="logicalnot" unicode="&#xac;" horiz-adv-x="606" 
d="M479 360h-428v76h504v-270h-76v194z" />
    <glyph glyph-name="minus" unicode="&#xad;" horiz-adv-x="485" 
d="M411 680v-67h-337v67h337z" />
    <glyph glyph-name="registered" unicode="&#xae;" horiz-adv-x="747" 
d="M-9 370q0 157 112 269t271 112t270 -111t111 -270t-111 -271t-270 -112t-271 112t-112 271zM709 370q0 139 -98 237t-237 98q-140 0 -238 -98t-98 -237q0 -140 97.5 -238.5t238.5 -98.5q139 0 237 98t98 239zM564 156h-62l-122 197h-96v-197h-52v427h186q34 0 57.5 -4
t46.5 -17t35.5 -38t12.5 -54q0 -60 -39 -90q-35 -27 -96 -27zM364 394h31q56 0 82 11q40 17 40 66q0 45 -35 62q-25 12 -76 12h-122v-151h80z" />
    <glyph glyph-name="macron" unicode="&#xaf;" horiz-adv-x="226" 
d="M77 931v-126h-74v126h74zM224 931v-126h-74v126h74zM76 739h74v-739h-74v739z" />
    <glyph glyph-name="degree" unicode="&#xb0;" horiz-adv-x="400" 
d="M200 439q-62 0 -106 44t-44 106t44 106t106 44t106 -44t44 -106t-44 -106t-106 -44zM199 699q-45 0 -77 -32t-32 -78t32 -78t78 -32q45 0 77.5 32.5t32.5 77.5t-32.5 77.5t-78.5 32.5z" />
    <glyph glyph-name="plusminus" unicode="&#xb1;" horiz-adv-x="606" 
d="M265 554h76v-162h214v-76h-214v-164h-76v164h-214v76h214v162zM51 76h504v-76h-504v76z" />
    <glyph glyph-name="twosuperior" unicode="&#xb2;" horiz-adv-x="226" 
d="M76 739h74v-739h-74v739z" />
    <glyph glyph-name="threesuperior" unicode="&#xb3;" horiz-adv-x="200" 
d="M63 547h74v-547h-74v547zM63 739h74v-126h-74v126z" />
    <glyph glyph-name="mu" unicode="&#xb5;" horiz-adv-x="608" 
d="M471 547h74v-547h-70v85q-26 -50 -73 -74t-108 -24q-44 0 -82.5 14.5t-74.5 47.5v-241h-74v739h74v-289q0 -52 5.5 -75.5t18.5 -45.5q46 -79 143 -79q84 0 134 67q19 27 26 59t7 74v289z" />
    <glyph glyph-name="paragraph" unicode="&#xb6;" horiz-adv-x="564" 
d="M229 355q-77 0 -134.5 56.5t-57.5 133.5q0 90 64 146q32 30 69 39t90 9h231v-866h-74v799h-114v-799h-74v482z" />
    <glyph glyph-name="periodcentered" unicode="&#xb7;" horiz-adv-x="277" 
d="M101 364h74v-126h-74v126z" />
    <glyph glyph-name="periodcentered" unicode="&#x2219;" horiz-adv-x="277" 
d="M101 364h74v-126h-74v126z" />
    <glyph glyph-name="cedilla" unicode="&#xb8;" horiz-adv-x="650" 
d="M289 739v-126h-74v126h74zM436 739v-126h-74v126h74zM116 247q0 -76 64 -132.5t142 -56.5q62 0 117 32.5t79 87.5h77q-29 -84 -103.5 -137.5t-162.5 -53.5q-119 0 -203 83t-84 203q0 119 82.5 202.5t202.5 83.5q64 0 121 -27.5t99 -78.5q36 -44 50 -93t14 -113h-495z
M537 314q-14 73 -73.5 123.5t-135.5 50.5q-78 0 -138 -49t-74 -125h421z" />
    <glyph glyph-name="onesuperior" unicode="&#xb9;" horiz-adv-x="369" 
d="M337 597q0 -61 -45 -106t-107 -45q-63 0 -108 44t-45 107q0 64 44 109t109 45q62 0 107 -46t45 -108zM337 369v-44h-305v44h305zM291 599q0 45 -30.5 76.5t-75.5 31.5q-46 0 -76.5 -31.5t-30.5 -76.5q0 -46 30.5 -77.5t76.5 -31.5q45 0 75.5 31.5t30.5 77.5z" />
    <glyph glyph-name="guillemotright" unicode="&#xbb;" horiz-adv-x="425" 
d="M213 133l94 168l-94 168l59 31l113 -199l-113 -200zM40 133l94 168l-94 168l58 31l113 -199l-113 -200z" />
    <glyph glyph-name="onequarter" unicode="&#xbc;" horiz-adv-x="203" 
d="M140 50q0 -73 -5 -98q-10 -50 -45 -87q-54 -57 -135 -57v72q71 0 95 53q16 35 16 117v497h74v-497zM66 739h74v-126h-74v126z" />
    <glyph glyph-name="onehalf" unicode="&#xbd;" horiz-adv-x="498" 
d="M101 207q0 -61 43 -105t105 -44q64 0 108.5 41.5t44.5 104.5q0 29 -14 57.5t-37 47.5t-54 31q-18 7 -64 19t-64 19q-37 14 -62 36q-62 53 -62 138q0 88 60.5 143.5t149.5 55.5q84 0 143.5 -57.5t59.5 -142.5h-77q0 56 -38.5 92.5t-96.5 36.5q-53 0 -90 -38t-37 -91
q0 -59 46 -91q28 -19 97.5 -38.5t77.5 -22.5q38 -14 67 -41q69 -60 69 -155q0 -91 -66.5 -153.5t-158.5 -62.5q-97 0 -163 62t-66 158h79z" />
    <glyph glyph-name="threequarters" unicode="&#xbe;" horiz-adv-x="388" 
d="M92 161q0 -42 28.5 -72.5t70.5 -30.5q41 0 68.5 25.5t27.5 65.5q0 45 -32 71q-25 20 -68.5 33t-57.5 19q-29 12 -48.5 30.5t-31 45.5t-11.5 58q0 66 45.5 109.5t112.5 43.5q61 0 106 -44t45 -104h-74q0 35 -24 56t-61 21q-32 0 -54 -22t-22 -54q0 -40 30 -62
q20 -14 66 -29q74 -24 107 -52q46 -40 46 -108q0 -77 -49.5 -125.5t-127.5 -48.5q-69 0 -117.5 51.5t-48.5 122.5h74z" />
    <glyph glyph-name="questiondown" unicode="&#xbf;" horiz-adv-x="200" 
d="M64 739v-126h-74v126h74zM211 739v-126h-74v126h74zM63 547h74v-547h-74v547z" />
    <glyph glyph-name="Agrave" unicode="&#xc0;" horiz-adv-x="740" 
d="M330 739h82l317 -739h-80l-107 248h-344l-107 -248h-80zM513 315l-142 339l-144 -339h286z" />
    <glyph glyph-name="Aacute" unicode="&#xc1;" horiz-adv-x="592" 
d="M490 739v-67h-340v-231h139q61 0 106.5 -9.5t85.5 -38.5q84 -62 84 -171q0 -57 -24.5 -104.5t-72.5 -77.5q-40 -25 -95 -34q-38 -6 -103 -6h-194v739h414zM277 374h-127v-307h95q12 0 24 -0.5t24 -0.5q33 0 57 3.5t49 13.5q92 38 92 138q0 39 -16.5 71t-47 51t-67.5 25
t-83 6z" />
    <glyph glyph-name="Acircumflex" unicode="&#xc2;" horiz-adv-x="574" 
d="M76 739h173q53 0 93 -7t77.5 -31.5t61 -67t23.5 -90.5q0 -46 -21.5 -83.5t-60.5 -64.5q58 -24 90 -73t32 -113q0 -51 -24.5 -96.5t-67 -72.5t-97.5 -35q-35 -5 -105 -5h-174v739zM241 67h19q56 0 86 5.5t51 16.5q32 17 52 50t20 69q0 48 -24 82.5t-68 50.5
q-30 10 -74 12.5t-56 2.5h-19h-78v-289h91zM230 423h18q50 0 76 5.5t46 16.5q26 14 43 43t17 60t-16 58t-43 44q-21 13 -52 17.5t-66 4.5h-17h-86v-249h80z" />
    <glyph glyph-name="Atilde" unicode="&#xc3;" horiz-adv-x="458" 
d="M76 739h375v-67h-301v-672h-74v739z" />
    <glyph glyph-name="Adieresis" unicode="&#xc4;" horiz-adv-x="657" 
d="M39 67l191 672h351v-672h50v-67h-631v67h39zM507 67v605h-222l-168 -605h390z" />
    <glyph glyph-name="Aring" unicode="&#xc5;" horiz-adv-x="536" 
d="M76 739h404v-67h-330v-266h319v-67h-319v-272h330v-67h-404v739z" />
    <glyph glyph-name="AE" unicode="&#xc6;" horiz-adv-x="816" 
d="M371 353l-273 -353h-92l292 379l-292 360h94l271 -338v338h74v-337l271 337h94l-292 -360l292 -379h-92l-273 353v-353h-74v353z" />
    <glyph glyph-name="Ccedilla" unicode="&#xc7;" horiz-adv-x="538" 
d="M172 354v68h89q61 0 99 31q43 35 43 98q0 54 -36.5 91.5t-90.5 37.5q-58 0 -96.5 -36.5t-38.5 -92.5h-77q0 84 59 142t144 58q88 0 149 -56t61 -143q0 -85 -62 -138q-8 -7 -16.5 -12.5t-19.5 -11.5q28 -13 48 -32q69 -60 69 -155q0 -91 -66.5 -153.5t-158.5 -62.5
q-97 0 -163 62t-66 158h79q0 -61 43 -105t105 -44q64 0 108.5 41.5t44.5 104.5q0 62 -44 106t-107 44h-99z" />
    <glyph glyph-name="Egrave" unicode="&#xc8;" horiz-adv-x="720" 
d="M644 739v-739h-74v650l-419 -650h-75v739h74v-613l393 613h101z" />
    <glyph glyph-name="Eacute" unicode="&#xc9;" horiz-adv-x="720" 
d="M644 739v-739h-74v650l-419 -650h-75v739h74v-613l393 613h101zM271 898q11 -23 36 -34.5t53 -11.5q27 0 53 12t36 34h63q-13 -51 -55 -77t-97 -26q-56 0 -95 24q-44 27 -57 79h63z" />
    <glyph glyph-name="Ecircumflex" unicode="&#xca;" horiz-adv-x="591" 
d="M76 739h74v-425l341 425h94l-292 -360l292 -379h-92l-247 320l-96 -118v-202h-74v739z" />
    <glyph glyph-name="Edieresis" unicode="&#xcb;" horiz-adv-x="657" 
d="M581 739v-739h-74v672h-232l-187 -672h-78l210 739h361z" />
    <glyph glyph-name="Igrave" unicode="&#xcc;" horiz-adv-x="919" 
d="M76 739h114l270 -629l269 629h114v-739h-74v657l-278 -657h-63l-278 657v-657h-74v739z" />
    <glyph glyph-name="Iacute" unicode="&#xcd;" horiz-adv-x="683" 
d="M76 739h74v-325h383v325h74v-739h-74v347h-383v-347h-74v739z" />
    <glyph glyph-name="Icircumflex" unicode="&#xce;" horiz-adv-x="869" 
d="M825 371q0 -160 -115 -272t-276 -112q-157 0 -273.5 110.5t-116.5 268.5q0 160 114 272t276 112q158 0 274.5 -110.5t116.5 -268.5zM118 366q0 -127 94.5 -217.5t222.5 -90.5q131 0 223.5 91.5t92.5 221.5q0 127 -94.5 217.5t-221.5 90.5q-132 0 -224.5 -91.5
t-92.5 -221.5z" />
    <glyph glyph-name="Idieresis" unicode="&#xcf;" horiz-adv-x="683" 
d="M76 739h531v-739h-74v672h-383v-672h-74v739z" />
    <glyph glyph-name="Eth" unicode="&#xd0;" horiz-adv-x="592" 
d="M76 739h194q70 0 113 -6.5t85 -33.5q97 -61 97 -182q0 -109 -84 -171q-39 -29 -91 -40q-38 -8 -101 -8h-139v-298h-74v739zM277 365q62 0 93 7.5t56 22.5q31 19 48 52.5t17 70.5q0 100 -92 138q-25 10 -49 13.5t-57 3.5q-12 0 -24 -0.5t-24 -0.5h-95v-307h127z" />
    <glyph glyph-name="Ntilde" unicode="&#xd1;" horiz-adv-x="813" 
d="M685 549q-40 62 -110.5 96.5t-147.5 34.5q-125 0 -217 -93t-92 -215q0 -129 93.5 -221.5t220.5 -92.5q75 0 143.5 36.5t112.5 98.5h82q-48 -92 -141 -149t-197 -57q-163 0 -275.5 110.5t-112.5 274.5q0 157 112 268t270 111q120 0 213 -62q39 -25 74 -61q40 -42 54 -79
h-82z" />
    <glyph glyph-name="Ograve" unicode="&#xd2;" horiz-adv-x="426" 
d="M176 672h-169v67h412v-67h-169v-672h-74v672z" />
    <glyph glyph-name="Oacute" unicode="&#xd3;" horiz-adv-x="680" 
d="M324 105l-322 634h81l277 -547l230 547h82l-320 -739h-75z" />
    <glyph glyph-name="Ocircumflex" unicode="&#xd4;" horiz-adv-x="944" 
d="M510 -13h-76q-157 0 -273.5 110.5t-116.5 268.5q0 160 114 272t276 112h76q161 0 275.5 -111.5t114.5 -272.5q0 -157 -116 -268t-274 -111zM509 679v-621q127 0 222 91t95 217q0 129 -93 221t-224 92zM435 679q-132 0 -224.5 -91.5t-92.5 -221.5q0 -127 94.5 -217.5
t222.5 -90.5v621z" />
    <glyph glyph-name="Otilde" unicode="&#xd5;" horiz-adv-x="609" 
d="M259 378l-236 361h86l196 -296l195 296h86l-239 -361l254 -378h-87l-209 316l-210 -316h-87z" />
    <glyph glyph-name="Odieresis" unicode="&#xd6;" horiz-adv-x="683" 
d="M76 0v739h74v-672h383v672h74v-672h50v-67h-581z" />
    <glyph glyph-name="multiply" unicode="&#xd7;" horiz-adv-x="627" 
d="M49 739h74v-275q0 -57 38.5 -90.5t96.5 -33.5q60 0 114.5 18.5t105.5 57.5v323h74v-739h-74v345q-54 -36 -111.5 -55.5t-123.5 -19.5q-81 0 -136 49q-58 52 -58 135v285z" />
    <glyph glyph-name="Oslash" unicode="&#xd8;" horiz-adv-x="922" 
d="M76 0v739h74v-672h274v672h74v-672h274v672h74v-739h-770z" />
    <glyph glyph-name="Ugrave" unicode="&#xd9;" horiz-adv-x="922" 
d="M76 0v739h74v-672h274v672h74v-672h274v672h74v-672h50v-67h-820z" />
    <glyph glyph-name="Uacute" unicode="&#xda;" horiz-adv-x="655" 
d="M139 672h-132v67h206v-298h139q61 0 106.5 -9.5t85.5 -38.5q84 -62 84 -171q0 -57 -24.5 -104.5t-72.5 -77.5q-40 -25 -95 -34q-38 -6 -103 -6h-194v672zM340 374h-127v-307h95q12 0 24 -0.5t24 -0.5q33 0 57 3.5t49 13.5q92 38 92 138q0 39 -16.5 71t-47 51t-67.5 25
t-83 6z" />
    <glyph glyph-name="Ucircumflex" unicode="&#xdb;" horiz-adv-x="818" 
d="M76 0v739h74v-298h139q61 0 106.5 -9.5t85.5 -38.5q84 -62 84 -171q0 -57 -24.5 -104.5t-72.5 -77.5q-40 -25 -95 -34q-38 -6 -103 -6h-194zM668 739h74v-739h-74v739zM277 374h-127v-307h95q12 0 24 -0.5t24 -0.5q33 0 57 3.5t49 13.5q92 38 92 138q0 39 -16.5 71
t-47 51t-67.5 25t-83 6z" />
    <glyph glyph-name="Udieresis" unicode="&#xdc;" horiz-adv-x="592" 
d="M76 0v739h74v-298h139q61 0 106.5 -9.5t85.5 -38.5q84 -62 84 -171q0 -57 -24.5 -104.5t-72.5 -77.5q-40 -25 -95 -34q-38 -6 -103 -6h-194zM277 374h-127v-307h95q12 0 24 -0.5t24 -0.5q33 0 57 3.5t49 13.5q92 38 92 138q0 39 -16.5 71t-47 51t-67.5 25t-83 6z" />
    <glyph glyph-name="Yacute" unicode="&#xdd;" horiz-adv-x="813" 
d="M692 414q-17 110 -105 188t-201 78q-75 0 -146.5 -35t-111.5 -96h-82q14 37 54 79q35 36 74 61q47 31 100.5 46.5t112.5 15.5q159 0 270.5 -110.5t111.5 -268.5q0 -163 -112 -274t-276 -111q-104 0 -197 57t-141 149h82q44 -62 112.5 -98.5t143.5 -36.5q122 0 217.5 85.5
t95.5 203.5h-464v67h462z" />
    <glyph glyph-name="Thorn" unicode="&#xde;" horiz-adv-x="1053" 
d="M228 347h-78v-347h-74v739h74v-325h81q18 144 128 240t259 96q158 0 274.5 -110.5t116.5 -268.5q0 -160 -115 -272t-276 -112q-153 0 -270 104q-120 107 -120 256zM302 366q0 -127 94.5 -217.5t222.5 -90.5q131 0 223.5 91.5t92.5 221.5q0 128 -94 218t-222 90
q-132 0 -224.5 -91.5t-92.5 -221.5z" />
    <glyph glyph-name="germandbls" unicode="&#xdf;" horiz-adv-x="607" 
d="M531 739v-739h-74v672h-117q-61 0 -97 -5.5t-69 -28.5t-51.5 -58.5t-18.5 -74.5q0 -106 96 -150q31 -14 67 -17t94 -3h22l-251 -335h-92l208 276q-90 0 -154 65t-64 157q0 66 29 119.5t86 85.5q41 23 91 29.5t119 6.5h176z" />
    <glyph glyph-name="agrave" unicode="&#xe0;" horiz-adv-x="683" 
d="M620 0h-71v103q-31 -56 -87.5 -86t-124.5 -30q-64 0 -127 29t-114 87q-18 20 -34 64q-20 55 -20 110q0 50 21 104q18 45 36 62q59 63 117 89.5t119 26.5q69 0 126.5 -29t87.5 -87v104h71v-547zM116 271q0 -89 66 -151t155 -62q86 0 149 63t63 149q0 91 -61.5 154.5
t-152.5 63.5q-90 0 -154.5 -63.5t-64.5 -153.5z" />
    <glyph glyph-name="aacute" unicode="&#xe1;" horiz-adv-x="655" 
d="M152 660q44 43 115 69q28 10 122 34q69 17 96 38q17 13 25.5 25.5t8.5 19.5l52 -37q0 -11 -9 -27.5t-29 -33.5q-28 -25 -212 -83q-83 -26 -115 -58t-55 -77q-19 -37 -25 -68q32 43 79 68q56 29 127 29q114 0 199 -84t85 -198q0 -118 -83 -204t-201 -86t-202.5 82.5
t-84.5 200.5q0 164 31 260q26 80 76 130zM119 270q0 -88 62 -150t151 -62q90 0 150 64t60 155q0 46 -15.5 82.5t-48.5 68.5q-63 60 -146 60q-90 0 -151.5 -63.5t-61.5 -154.5z" />
    <glyph glyph-name="acircumflex" unicode="&#xe2;" horiz-adv-x="456" 
d="M63 547h134q41 0 69 -5t57 -24t47 -51t18 -70q0 -31 -12.5 -57t-36.5 -46q38 -20 58 -55t20 -80q0 -39 -18 -73.5t-50.5 -55t-67 -25.5t-84.5 -5h-134v547zM298 82q19 10 32 32t13 44q0 65 -58 86q-18 7 -36 8.5t-54 1.5h-13h-46v-186h55h14q31 0 53.5 2.5t39.5 11.5z
M278 336q18 9 28 27t10 38q0 18 -10.5 36.5t-26 27.5t-34 11.5t-45.5 2.5h-12h-52v-157h47h13q29 0 47.5 2.5t34.5 11.5z" />
    <glyph glyph-name="atilde" unicode="&#xe3;" horiz-adv-x="432" 
d="M64 547h341v-66h-268v-481h-73v547z" />
    <glyph glyph-name="adieresis" unicode="&#xe4;" horiz-adv-x="492" 
d="M156 547h268v-479h36v-68h-470v68h30zM352 479h-141l-115 -411h256v411z" />
    <glyph glyph-name="aring" unicode="&#xe5;" horiz-adv-x="650" 
d="M116 247q0 -76 64 -132.5t142 -56.5q62 0 117 32.5t79 87.5h77q-29 -84 -103.5 -137.5t-162.5 -53.5q-119 0 -203 83t-84 203q0 119 82.5 202.5t202.5 83.5q64 0 121 -27.5t99 -78.5q36 -44 50 -93t14 -113h-495zM537 314q-14 73 -73.5 123.5t-135.5 50.5q-78 0 -138 -49
t-74 -125h421z" />
    <glyph glyph-name="ae" unicode="&#xe6;" horiz-adv-x="688" 
d="M381 294l193 253h95l-212 -274l226 -273h-95l-207 249v-249h-74v249l-207 -249h-95l226 273l-212 274h95l193 -253v253h74v-253z" />
    <glyph glyph-name="ccedilla" unicode="&#xe7;" horiz-adv-x="388" 
d="M112 252v69h74q40 0 65.5 21t25.5 61q0 34 -23 58t-57 24q-38 0 -62.5 -23.5t-24.5 -59.5l-1 -9h-74v10q0 65 45 109t110 44q67 0 113.5 -42.5t46.5 -109.5q0 -66 -47 -107l-13 -9q5 -3 10 -6.5t11 -9.5q25 -22 38.5 -52t13.5 -65q0 -69 -50.5 -116.5t-119.5 -47.5
q-73 0 -123 47t-50 120v10h76v-10q0 -40 27.5 -68.5t68.5 -28.5q42 0 70.5 26.5t28.5 67.5t-28 69t-70 28h-81z" />
    <glyph glyph-name="egrave" unicode="&#xe8;" horiz-adv-x="610" 
d="M546 547v-547h-74v464l-333 -464h-75v547h74v-437l310 437h98z" />
    <glyph glyph-name="eacute" unicode="&#xe9;" horiz-adv-x="610" 
d="M546 547v-547h-74v464l-333 -464h-75v547h74v-437l310 437h98zM216 706q11 -23 36 -34.5t53 -11.5q27 0 53 12t36 34h63q-13 -51 -55 -77t-97 -26q-56 0 -95 24q-44 27 -57 79h63z" />
    <glyph glyph-name="ecircumflex" unicode="&#xea;" horiz-adv-x="502" 
d="M63 547h74v-327l251 327h95l-212 -274l226 -273h-95l-178 216l-87 -112v-104h-74v547z" />
    <glyph glyph-name="edieresis" unicode="&#xeb;" horiz-adv-x="492" 
d="M424 547v-547h-72v479h-148l-133 -479h-78l156 547h275z" />
    <glyph glyph-name="igrave" unicode="&#xec;" horiz-adv-x="818" 
d="M64 547h108l237 -454l237 454h108v-547h-74v466l-240 -466h-62l-241 467v-467h-73v547z" />
    <glyph glyph-name="iacute" unicode="&#xed;" horiz-adv-x="588" 
d="M63 547h74v-232h313v232h74v-547h-74v248h-313v-248h-74v547z" />
    <glyph glyph-name="icircumflex" unicode="&#xee;" horiz-adv-x="655" 
d="M613 277q0 -118 -83 -204t-201 -86t-202.5 82.5t-84.5 200.5q0 120 83.5 204.5t203.5 84.5q114 0 199 -84t85 -198zM116 270q0 -88 62 -150t151 -62q90 0 150 64t60 155q0 46 -15.5 82.5t-48.5 68.5q-63 60 -146 60q-90 0 -151.5 -63.5t-61.5 -154.5z" />
    <glyph glyph-name="idieresis" unicode="&#xef;" horiz-adv-x="588" 
d="M64 547h460v-547h-74v480h-313v-480h-73v547z" />
    <glyph glyph-name="eth" unicode="&#xf0;" horiz-adv-x="682" 
d="M133 547v-94q30 50 92.5 78t125.5 28t117 -24.5t107 -81.5q27 -24 46 -74t19 -108q0 -121 -87.5 -202.5t-208.5 -81.5q-64 0 -120 29q-61 32 -87 86v-294h-74v739h70zM566 272q0 89 -62.5 152.5t-152.5 63.5q-91 0 -155 -60t-64 -150q0 -49 12.5 -84.5t45.5 -68.5
q64 -67 156 -67t156 61t64 153z" />
    <glyph glyph-name="ntilde" unicode="&#xf1;" horiz-adv-x="647" 
d="M607 160q-37 -81 -107 -127t-159 -46q-124 0 -211.5 81.5t-87.5 205.5q0 120 87.5 202.5t208.5 82.5q90 0 164 -47.5t106 -130.5h-83q-29 49 -79 78t-107 29q-93 0 -158 -60.5t-65 -152.5t62.5 -154.5t154.5 -62.5q63 0 109 25.5t83 76.5h82z" />
    <glyph glyph-name="ograve" unicode="&#xf2;" horiz-adv-x="379" 
d="M2 481v66h375v-66h-150v-481h-73v481h-152z" />
    <glyph glyph-name="oacute" unicode="&#xf3;" horiz-adv-x="536" 
d="M527 547l-316 -739h-78l86 209l-210 530h79l175 -436l185 436h79z" />
    <glyph glyph-name="ocircumflex" unicode="&#xf4;" horiz-adv-x="1164" 
d="M619 -192h-74v290q-31 -52 -87.5 -81.5t-119.5 -29.5q-121 0 -208.5 81.5t-87.5 202.5q0 58 19 107.5t45 74.5q48 56 104.5 81t120.5 25q62 0 122.5 -29.5t91.5 -80.5v290h74v-290q31 52 87.5 81t119.5 29q122 0 209 -81t87 -202q0 -55 -19.5 -104t-45.5 -78
q-55 -62 -110 -86q-48 -21 -114 -21q-61 0 -122 30t-92 81v-290zM492 125q30 30 42.5 68t12.5 85q0 89 -62.5 149.5t-153.5 60.5q-89 0 -152 -63t-63 -153q0 -91 63.5 -152.5t156.5 -61.5q92 0 156 67zM673 422q-30 -30 -43 -67.5t-13 -85.5q0 -90 62.5 -150.5t153.5 -60.5
q89 0 152 63t63 153q0 92 -64 153t-156 61q-44 0 -84 -17t-71 -49z" />
    <glyph glyph-name="otilde" unicode="&#xf5;" horiz-adv-x="480" 
d="M195 278l-187 269h87l145 -211l145 211h87l-188 -269l188 -278h-87l-145 219l-145 -219h-87z" />
    <glyph glyph-name="odieresis" unicode="&#xf6;" horiz-adv-x="588" 
d="M64 0v547h73v-480h313v480h74v-480h45v-67h-505z" />
    <glyph glyph-name="divide" unicode="&#xf7;" horiz-adv-x="492" 
d="M45 547h74v-203q0 -33 24.5 -54.5t63.5 -21.5q76 0 144 51v228h73v-547h-73v249q-68 -47 -162 -47q-55 0 -98 37q-46 40 -46 97v211z" />
    <glyph glyph-name="oslash" unicode="&#xf8;" horiz-adv-x="821" 
d="M64 0v547h73v-480h236v480h74v-480h236v480h74v-547h-693z" />
    <glyph glyph-name="ugrave" unicode="&#xf9;" horiz-adv-x="821" 
d="M64 0v547h73v-480h236v480h74v-480h236v480h74v-480h44v-67h-737z" />
    <glyph glyph-name="uacute" unicode="&#xfa;" horiz-adv-x="467" 
d="M-5 479v68h167v-213h89q44 0 78.5 -7t65 -29.5t47 -56t16.5 -73.5q0 -42 -19.5 -79t-52.5 -57.5t-74 -27.5q-25 -4 -75 -4h-148v479h-94zM162 267v-199h58q10 0 20.5 -0.5t20.5 -0.5q19 0 34.5 2t29.5 9q60 25 60 90q0 25 -10.5 45.5t-30 32.5t-45.5 16.5t-57 4.5h-80z
" />
    <glyph glyph-name="ucircumflex" unicode="&#xfb;" horiz-adv-x="583" 
d="M44 0v547h73v-213h89q44 0 78.5 -7t65 -29.5t47 -56t16.5 -73.5q0 -42 -19.5 -79t-52.5 -57.5t-74 -27.5q-25 -4 -74 -4h-149zM466 547h73v-547h-73v547zM117 267v-199h58q10 0 20.5 -0.5t20.5 -0.5q19 0 34.5 2t30.5 9q59 25 59 90q0 25 -10.5 45.5t-30 32.5t-45.5 16.5
t-56 4.5h-81z" />
    <glyph glyph-name="udieresis" unicode="&#xfc;" horiz-adv-x="468" 
d="M63 0v547h73v-213h89q44 0 78.5 -7t65 -29.5t47 -56t16.5 -73.5q0 -42 -19.5 -79t-52.5 -57.5t-74 -27.5q-25 -4 -74 -4h-149zM136 267v-199h58q10 0 20.5 -0.5t20.5 -0.5q19 0 34.5 2t30.5 9q59 25 59 90q0 25 -10.5 45.5t-30 32.5t-45.5 16.5t-56 4.5h-81z" />
    <glyph glyph-name="yacute" unicode="&#xfd;" horiz-adv-x="647" 
d="M527 315q-14 77 -75.5 125t-143.5 48q-57 0 -107 -29t-79 -78h-83q31 81 106 129.5t164 48.5q121 0 208.5 -82.5t87.5 -202.5q0 -123 -87 -205t-212 -82q-89 0 -159 46t-107 127h82q37 -51 83 -76.5t109 -25.5q85 0 145 54t70 136h-392v67h390z" />
    <glyph glyph-name="thorn" unicode="&#xfe;" horiz-adv-x="816" 
d="M204 248h-67v-248h-73v547h73v-232h69q17 105 96.5 174.5t187.5 69.5q114 0 199 -84t85 -198q0 -118 -83 -204t-201 -86q-113 0 -198 75q-88 78 -88 186zM277 270q0 -88 62 -150t151 -62q90 0 150 64t60 155q0 46 -15.5 82.5t-48.5 68.5q-63 60 -146 60
q-90 0 -151.5 -63.5t-61.5 -154.5z" />
    <glyph glyph-name="ydieresis" unicode="&#xff;" horiz-adv-x="492" 
d="M424 547v-547h-73v479h-74q-46 0 -68.5 -3.5t-44 -18.5t-33.5 -38t-12 -49q0 -68 63 -98q15 -7 38.5 -10t43.5 -3h28h36l-194 -259h-90l149 198q-63 8 -105 55t-42 112q0 49 22.5 90t64.5 65q32 17 69 22t86 5h136z" />
    </font>
</defs>
</svg>
