<?xml version="1.0" standalone="no"?>
<!DOCTYPE svg PUBLIC "-//W3C//DTD SVG 1.1//EN" "http://www.w3.org/Graphics/SVG/1.1/DTD/svg11.dtd" >
<svg>
<metadata>
Created by FontForge 20110222 at Thu Oct 23 16:34:16 2014
 By deploy user
Copyright (C) 1993; Type Market Ltd. Moscow, 119136, Box 20; phone:(095)2071022; Created by A.Kustov
</metadata>
<defs>
<font id="Europe" horiz-adv-x="562" >
  <font-face 
    font-family="Europe"
    font-weight="400"
    font-stretch="normal"
    units-per-em="1000"
    panose-1="4 0 5 0 0 0 0 0 0 0"
    ascent="763"
    descent="-237"
    x-height="524"
    cap-height="749"
    bbox="-11 -237 1262 946"
    underline-thickness="50"
    underline-position="-50"
    unicode-range="U+0020-2122"
  />
<missing-glyph horiz-adv-x="500" 
 />
    <glyph glyph-name=".notdef" horiz-adv-x="500" 
 />
    <glyph glyph-name=".null" horiz-adv-x="0" 
 />
    <glyph glyph-name="nonmarkingreturn" horiz-adv-x="333" 
 />
    <glyph glyph-name="space" unicode=" " horiz-adv-x="238" 
 />
    <glyph glyph-name="space" unicode="&#xa0;" horiz-adv-x="238" 
 />
    <glyph glyph-name="exclam" unicode="!" horiz-adv-x="268" 
d="M173 101v-101h-89v101h89zM177 749l-16 -543h-65l-16 543h97z" />
    <glyph glyph-name="quotedbl" unicode="&#x22;" horiz-adv-x="370" 
d="M134 450h-65l-14 300h94zM301 450h-67l-13 300h94z" />
    <glyph glyph-name="numbersign" unicode="#" horiz-adv-x="679" 
d="M435 260l-32 -222h-46l31 222h-132l-30 -222h-49l32 222h-140l7 45h139l18 126h-140l7 46h139l30 205h47l-29 -205h132l28 205h47l-29 -205h144l-7 -46h-143l-18 -126h143l-6 -45h-143zM412 431h-133l-17 -126h132z" />
    <glyph glyph-name="dollar" unicode="$" horiz-adv-x="687" 
d="M314 416v264h-37q-32 0 -51 -1.5t-42.5 -8t-35.5 -19t-20.5 -36.5t-8.5 -58q0 -47 9 -75.5t31 -42.5t48 -18.5t71 -4.5h36zM377 344v-286h29q86 0 127 30t41 113q0 50 -9.5 79.5t-35.5 43t-53 17t-81 3.5h-18zM377 -10v-74h-63v74q-39 0 -61.5 0.5t-54.5 3t-49.5 8.5
t-40 15.5t-34.5 25t-24 36.5t-16.5 50.5t-4.5 67.5v27h83q0 -40 2.5 -66t11.5 -45t19.5 -29.5t32.5 -16.5t45.5 -7.5t62.5 -1.5h28v286q-44 0 -72.5 1.5t-64.5 7.5t-58 18.5t-43 33t-30.5 53.5t-9.5 78q0 67 16.5 110.5t52 65.5t78 29.5t108.5 7.5h23v69h63v-69
q42 0 68.5 -1t57.5 -6t49.5 -13.5t37.5 -23.5t29 -37.5t16 -54.5t6 -74h-83q0 82 -24 111.5t-101 29.5h-56v-264q43 0 69 -1t59.5 -5t53 -12t40.5 -23t32 -36.5t18.5 -53.5t7.5 -74q0 -131 -59 -176t-197 -45h-24z" />
    <glyph glyph-name="percent" unicode="%" horiz-adv-x="912" 
d="M193 750q100 0 131 -28.5t31 -111.5v-97q0 -83 -31 -111.5t-131 -28.5q-99 0 -131 28.5t-32 110.5v97q0 84 31.5 112.5t131.5 28.5zM193 709q-61 0 -87.5 -15.5t-26.5 -71.5v-129q0 -52 25.5 -65.5t88.5 -13.5q33 0 49 1.5t33.5 9.5t24 25.5t6.5 47.5v124q0 57 -25.5 72
t-87.5 15zM730 750l-508 -750h-51l505 750h54zM709 377q100 0 131 -28.5t31 -111.5v-97q0 -83 -31 -111.5t-131 -28.5q-99 0 -131 28.5t-32 110.5v97q0 84 31.5 112.5t131.5 28.5zM709 336q-61 0 -87.5 -15.5t-26.5 -71.5v-129q0 -52 25.5 -65.5t88.5 -13.5q33 0 49 1.5
t33.5 9.5t24 25.5t6.5 47.5v124q0 57 -25.5 72t-87.5 15z" />
    <glyph glyph-name="ampersand" unicode="&#x26;" horiz-adv-x="786" 
d="M579 330h83v-65q0 -51 -9 -100l131 -107l-46 -58l-110 91q-16 -33 -42.5 -54t-64.5 -29.5t-65.5 -10.5t-73.5 -2q-76 0 -112 2t-84.5 14t-69 37t-36.5 72t-16 118q0 57 11.5 95t35.5 57t46.5 27t58.5 13q-41 35 -53.5 60.5t-12.5 79.5q0 45 11 77t28.5 50t48 28t60.5 13
t74 3q59 0 95.5 -6t66 -24.5t42.5 -55.5t13 -96v-41h-83v27q0 31 -2 51t-10 34t-16 21.5t-28 11.5t-37.5 4.5t-52.5 0.5q-32 0 -49.5 -2t-38 -9.5t-30 -26t-9.5 -48.5q0 -41 13.5 -64.5t49.5 -53.5l281 -236q2 22 2 102zM269 384q-78 -17 -100 -42.5t-22 -102.5
q0 -109 29 -141.5t136 -32.5h73q157 0 177 77z" />
    <glyph glyph-name="quotesingle" unicode="'" horiz-adv-x="205" 
d="M136 450h-68l-13 299h95z" />
    <glyph glyph-name="parenleft" unicode="(" horiz-adv-x="311" 
d="M258 756v-70q-32 0 -53.5 -9.5t-33 -22.5t-17.5 -39t-7.5 -47.5t-1.5 -58.5v-414q0 -26 1 -43t6.5 -38t15.5 -33t28.5 -20.5t45.5 -8.5h16v-70h-23q-47 0 -79.5 13.5t-50.5 33.5t-28 54.5t-12.5 65.5t-2.5 77v351q0 43 1 67.5t4.5 58.5t11.5 53t22 41t34.5 33t51.5 18.5
t71 7.5z" />
    <glyph glyph-name="parenright" unicode=")" horiz-adv-x="311" 
d="M62 756q40 0 71 -7.5t51.5 -18.5t34.5 -33t22 -41t11.5 -53t4.5 -58.5t1 -67.5v-351q0 -46 -2.5 -77t-12.5 -65.5t-28 -54.5t-50.5 -33.5t-79.5 -13.5h-23v70h16q33 0 53.5 11t29.5 34t11.5 43.5t2.5 53.5v416q0 37 -1.5 58.5t-7.5 47t-17.5 39t-33 22.5t-53.5 9v70z" />
    <glyph glyph-name="asterisk" unicode="*" horiz-adv-x="687" 
d="M543 588l-153 -55l93 -132l-45 -32l-93 136l-100 -136l-44 32l96 132l-152 58l18 53l154 -56v162h55v-162l153 57z" />
    <glyph glyph-name="plus" unicode="+" 
d="M26 405h230v217h48v-217h232v-47h-232v-217h-48v217h-230v47z" />
    <glyph glyph-name="comma" unicode="," horiz-adv-x="227" 
d="M159 101v-110q0 -52 -15.5 -77.5t-61.5 -25.5q-12 0 -22 2v42q28 1 38.5 13t10.5 40v15h-39v101h89z" />
    <glyph glyph-name="period" unicode="." horiz-adv-x="223" 
d="M156 101v-101h-89v101h89z" />
    <glyph glyph-name="slash" unicode="/" horiz-adv-x="726" 
d="M648 749l-579 -859h-61l577 859h63z" />
    <glyph glyph-name="zero" unicode="0" horiz-adv-x="687" 
d="M660 377q0 -154 -33.5 -238t-99.5 -115.5t-184 -31.5t-184 31.5t-99.5 115.5t-33.5 238t33.5 237t99 113t184.5 30q89 0 145.5 -16t97 -58t57.5 -116t17 -190zM577 377q0 99 -9 156t-36.5 92.5t-70.5 47t-118 11.5q-50 0 -84.5 -5t-62 -18.5t-43 -34t-26.5 -56.5
t-14.5 -81t-3.5 -111q0 -99 9.5 -156.5t36.5 -94.5t70.5 -49.5t117.5 -12.5q98 0 146.5 26.5t68 91t19.5 194.5z" />
    <glyph glyph-name="one" unicode="1" horiz-adv-x="687" 
d="M442 749v-749h-80v685l-192 -211l-53 49l207 226h118z" />
    <glyph glyph-name="two" unicode="2" horiz-adv-x="689" 
d="M601 73v-73h-540v140q0 51 13.5 88t33.5 58.5t57.5 35.5t72 19.5t89.5 10.5q86 8 125.5 24.5t52.5 47t13 95.5q0 89 -41 127t-141 38q-115 0 -155 -37.5t-40 -121.5v-31h-80q0 151 58.5 207t218.5 56q138 0 200.5 -54.5t62.5 -184.5q0 -71 -12 -114t-45 -69t-75.5 -37
t-119.5 -19q-133 -14 -170.5 -41t-37.5 -106v-59h460z" />
    <glyph glyph-name="three" unicode="3" horiz-adv-x="689" 
d="M274 348v73h96q95 0 120.5 23.5t25.5 113.5q0 63 -40 94.5t-143 31.5q-106 0 -143.5 -36.5t-37.5 -127.5h-80q0 131 58.5 184t201.5 53q141 0 204 -49.5t63 -149.5q0 -89 -28 -126t-94 -47q79 -10 107.5 -50t28.5 -119q0 -132 -58 -178t-221 -46q-53 0 -91 4.5
t-74.5 17.5t-59 35.5t-36 60.5t-13.5 91v44h80v-44q0 -79 38.5 -107.5t154.5 -28.5q67 0 105 6t59 25t27 45t6 75q0 74 -34.5 103t-117.5 29h-104z" />
    <glyph glyph-name="four" unicode="4" horiz-adv-x="689" 
d="M532 749v-505h113v-73h-113v-171h-80v171h-422v101l376 477h126zM452 244v450l-352 -450h352z" />
    <glyph glyph-name="five" unicode="5" horiz-adv-x="687" 
d="M85 370v378h504v-73h-424v-224q21 28 58 42.5t65 17t73 2.5q136 0 195.5 -53t59.5 -183q0 -85 -11 -136.5t-41.5 -86.5t-82 -48.5t-134.5 -13.5q-62 0 -98.5 3t-75.5 15.5t-58.5 36t-32.5 65t-13 103.5h83q0 -51 5.5 -77t27 -44.5t58 -23.5t104.5 -5q102 0 144 33t42 130
q0 125 -33 168.5t-138 43.5q-79 0 -119 -7t-55 -20.5t-23 -42.5h-80z" />
    <glyph glyph-name="six" unicode="6" horiz-adv-x="689" 
d="M348 458q139 0 200.5 -51t61.5 -181q0 -133 -63.5 -183.5t-212.5 -50.5q-56 0 -92.5 3.5t-70.5 14.5t-53.5 30.5t-34 51.5t-20.5 77t-6 109v108q0 80 4 134t17 98t32 69t53.5 41.5t77.5 22.5t107 6q53 0 87 -2.5t71 -12.5t57 -29t33.5 -52.5t13.5 -81.5v-23h-83v18
q0 70 -35 90t-144 20q-64 0 -101.5 -8t-63 -32.5t-34.5 -65.5t-9 -110v-82q12 26 28.5 40t60 23t119.5 9zM140 226q0 -96 41.5 -128.5t152.5 -32.5q108 0 150.5 34t42.5 126q0 94 -41 127t-152 33q-112 0 -153 -33t-41 -126z" />
    <glyph glyph-name="seven" unicode="7" horiz-adv-x="689" 
d="M600 749v-106l-363 -643h-100l395 676h-478v73h546z" />
    <glyph glyph-name="eight" unicode="8" horiz-adv-x="689" 
d="M337 351q-119 0 -157.5 -30t-38.5 -114t38.5 -113t158.5 -29t158.5 29t38.5 116q0 82 -39.5 111.5t-158.5 29.5zM337 683q-112 0 -148.5 -27.5t-36.5 -99.5q0 -83 33 -108.5t152 -25.5q84 0 124 14t51.5 39.5t11.5 79.5q0 48 -13.5 74t-54.5 40t-119 14zM187 390
q-73 15 -95.5 53.5t-22.5 111.5q0 113 59.5 157t211.5 44q151 0 209 -43.5t58 -156.5q0 -72 -23.5 -111.5t-96.5 -54.5q72 -13 101.5 -56.5t29.5 -118.5q0 -87 -21.5 -132.5t-82 -68t-177.5 -22.5q-115 0 -175 23t-82 69.5t-22 134.5q0 74 26.5 115t102.5 56z" />
    <glyph glyph-name="nine" unicode="9" horiz-adv-x="689" 
d="M324 289q-139 0 -200.5 51t-61.5 181q0 133 63.5 184t212.5 51q78 0 125.5 -9t84.5 -36t52 -77t15 -132v-140q0 -81 -4 -134.5t-16.5 -97t-32 -68.5t-53.5 -41.5t-77.5 -22.5t-107.5 -6q-53 0 -86.5 2.5t-70.5 12.5t-57.5 28.5t-34 52t-13.5 81.5v23h83v-20
q0 -68 35.5 -87.5t143.5 -19.5q65 0 102 8t62.5 32t34.5 64.5t9 109.5v83q-12 -27 -28.5 -41t-60 -23t-119.5 -9zM532 522q0 96 -41.5 128.5t-152.5 32.5q-108 0 -150.5 -34t-42.5 -126q0 -94 41 -127.5t152 -33.5t152.5 33t41.5 127z" />
    <glyph glyph-name="colon" unicode=":" horiz-adv-x="223" 
d="M156 101v-101h-89v101h89zM156 522v-101h-89v101h89z" />
    <glyph glyph-name="semicolon" unicode=";" horiz-adv-x="224" 
d="M156 101v-110q0 -52 -15.5 -77.5t-61.5 -25.5q-12 0 -22 2v42q28 1 38.5 13t10.5 40v15h-39v101h89zM156 523v-101h-89v101h89z" />
    <glyph glyph-name="less" unicode="&#x3c;" horiz-adv-x="561" 
d="M523 644v-88l-393 -180l393 -181v-87l-487 230v76z" />
    <glyph glyph-name="equal" unicode="=" 
d="M27 486h511v-47h-511v47zM27 325h511v-47h-511v47z" />
    <glyph glyph-name="greater" unicode="&#x3e;" 
d="M38 108v87l393 181l-393 181v87l487 -231v-75z" />
    <glyph glyph-name="question" unicode="?" horiz-adv-x="584" 
d="M301 216h-89q0 83 24.5 118.5t97.5 60.5t94 52t21 97q0 80 -34.5 108.5t-125.5 28.5q-67 0 -98.5 -11.5t-40.5 -33.5t-9 -70v-50h-80q0 74 8.5 116.5t33.5 71.5t68 39.5t115 10.5q65 0 105.5 -7t74 -27.5t48.5 -61.5t15 -105q0 -57 -12 -97.5t-36 -65t-47 -37.5t-58 -24
q-47 -15 -61 -35.5t-14 -59.5v-18zM301 101v-101h-89v101h89z" />
    <glyph glyph-name="at" unicode="@" horiz-adv-x="707" 
d="M461 531h55v-258q0 -23 2 -36.5t12 -26.5t30 -13t30 9t18 51.5t8 126.5q0 61 -1.5 93.5t-13 62.5t-25 41.5t-50 21t-74.5 10.5t-111 1q-63 0 -99.5 -2t-67.5 -14t-44 -26t-23 -48.5t-11.5 -71.5t-1.5 -104q0 -68 2.5 -109.5t13 -77.5t25.5 -53t46 -29.5t68.5 -16
t98.5 -3.5q118 0 159.5 8t46.5 29l39 -28q-14 -25 -35 -36t-63 -15.5t-130 -4.5q-45 0 -72 1t-61 4t-52.5 10t-41.5 18.5t-35 29t-24.5 42t-18.5 58.5t-9.5 76.5t-3.5 97.5q0 71 5 119.5t19 84.5t33.5 56t55.5 32.5t77 16t105 3.5q107 0 166.5 -10t95.5 -42.5t47 -82
t11 -139.5q0 -102 -13.5 -155.5t-32.5 -67.5t-53 -14t-59.5 15t-31.5 46q-26 -61 -135 -61q-47 0 -77.5 13.5t-44 42t-18 58.5t-4.5 78q0 99 30 144t122 45q88 0 116 -49v49zM461 372q0 61 -22.5 86.5t-82.5 25.5q-66 0 -85 -25t-19 -117q0 -93 17.5 -119t73.5 -26
q76 0 97 26t21 100v49z" />
    <glyph glyph-name="A" unicode="A" horiz-adv-x="720" 
d="M26 0l273 749h121l279 -749h-89l-56 154h-378l-60 -154h-90zM527 227l-166 460l-165 -460h331z" />
    <glyph glyph-name="B" unicode="B" horiz-adv-x="691" 
d="M153 345v-272h231q102 0 138.5 25t36.5 113t-27 111t-113 23h-266zM153 676v-258h238q84 0 115 29.5t31 109.5q0 69 -24 94t-91 25h-269zM70 0v749h361q98 0 143.5 -42.5t45.5 -141.5q0 -73 -17 -112t-76 -60q70 -19 92.5 -57.5t22.5 -118.5q0 -107 -43.5 -162
t-146.5 -55h-382z" />
    <glyph glyph-name="C" unicode="C" horiz-adv-x="671" 
d="M565 250h81q0 -148 -61.5 -203t-235.5 -55q-90 0 -143 14.5t-90.5 56.5t-51.5 115t-14 194q0 159 28.5 241.5t90 113t180.5 30.5q89 0 144.5 -13.5t85.5 -46.5t41.5 -74.5t15.5 -110.5h-81q-6 55 -13.5 83t-29.5 51t-59.5 30.5t-103.5 7.5q-89 0 -133 -25t-63.5 -90.5
t-19.5 -196.5q0 -80 6.5 -131.5t20 -87.5t40 -54.5t61 -26t88.5 -7.5q132 0 174 36.5t42 148.5z" />
    <glyph glyph-name="D" unicode="D" horiz-adv-x="732" 
d="M70 0v749h346q71 0 121.5 -19.5t79.5 -50.5t45.5 -82.5t21.5 -101.5t5 -121q0 -69 -4.5 -118.5t-20 -101t-42 -83t-73 -51.5t-111.5 -20h-368zM153 676v-603h244q113 0 161 64.5t48 236.5q0 117 -23 183.5t-67.5 92.5t-121.5 26h-241z" />
    <glyph glyph-name="E" unicode="E" horiz-adv-x="596" 
d="M153 418h381v-73h-381v-272h397v-73h-480v749h482v-73h-399v-258z" />
    <glyph glyph-name="F" unicode="F" horiz-adv-x="545" 
d="M153 418h365v-73h-365v-345h-83v749h457v-73h-374v-258z" />
    <glyph glyph-name="G" unicode="G" horiz-adv-x="695" 
d="M665 529h-83q-5 66 -21.5 96.5t-62 44.5t-140.5 14q-70 0 -110.5 -12t-68 -47.5t-37 -94.5t-9.5 -158t9.5 -157t37 -92.5t68 -46t110.5 -11.5q134 0 179 48t45 182v26h-240v73h323v-87q0 -130 -28 -196.5t-91.5 -92.5t-186.5 -26q-95 0 -153.5 17.5t-94 63.5t-48.5 115.5
t-13 183.5q0 222 63.5 303.5t244.5 81.5q78 0 131.5 -9t86 -25t51.5 -46.5t26.5 -62.5t11.5 -85z" />
    <glyph glyph-name="H" unicode="H" horiz-adv-x="744" 
d="M153 418h438v331h83v-749h-83v345h-438v-345h-83v749h83v-331z" />
    <glyph glyph-name="I" unicode="I" horiz-adv-x="223" 
d="M153 749v-749h-83v749h83z" />
    <glyph glyph-name="J" unicode="J" horiz-adv-x="561" 
d="M408 749h83v-543q0 -105 -50 -159.5t-180 -54.5q-71 0 -117 12.5t-71 40.5t-34.5 65.5t-9.5 95.5v67h83v-55q0 -90 29.5 -121.5t119.5 -31.5q78 0 112.5 36t34.5 118v530z" />
    <glyph glyph-name="K" unicode="K" horiz-adv-x="696" 
d="M153 749v-331h74l307 331h111l-344 -362l384 -387h-115l-343 345h-74v-345h-83v749h83z" />
    <glyph glyph-name="L" unicode="L" horiz-adv-x="553" 
d="M153 749v-676h379v-73h-462v749h83z" />
    <glyph glyph-name="M" unicode="M" horiz-adv-x="946" 
d="M207 749l266 -642l266 642h137v-749h-83v689l-283 -689h-72l-285 682v-682h-83v749h137z" />
    <glyph glyph-name="N" unicode="N" horiz-adv-x="777" 
d="M70 749h132l422 -684v684h83v-749h-132l-422 677v-677h-83v749z" />
    <glyph glyph-name="O" unicode="O" horiz-adv-x="729" 
d="M50 374q0 82 5.5 139.5t20.5 101.5t37 70.5t59 43t82.5 22.5t111.5 6q99 0 155.5 -14.5t94 -58t50 -115.5t12.5 -195t-12.5 -194.5t-50 -115t-95 -58t-156.5 -14.5t-156 14.5t-94.5 58t-50.5 115t-13 194.5zM133 374q0 -71 2.5 -115t12.5 -82t24.5 -57t42 -33t62 -18
t88.5 -4t88.5 4t61.5 18t41.5 33t24 57t12 82t2.5 115q0 72 -2.5 116t-12 82t-23.5 57t-41.5 33t-62 18t-88.5 4q-55 0 -89.5 -4t-62.5 -18t-42 -33t-23.5 -57t-12 -82t-2.5 -116z" />
    <glyph glyph-name="P" unicode="P" horiz-adv-x="666" 
d="M153 293v-293h-83v749h357q108 0 153 -50t45 -163q0 -137 -53.5 -190t-195.5 -53h-223zM153 676v-310h199q106 0 148 31.5t42 127.5q0 85 -24.5 118t-102.5 33h-262z" />
    <glyph glyph-name="Q" unicode="Q" horiz-adv-x="743" 
d="M726 91l-34 -57l-56 38q-43 -51 -103.5 -65.5t-173.5 -14.5q-66 0 -111 6t-82 22.5t-59 43t-37 70.5t-20.5 101t-5.5 139q0 99 9 163t29 109t58 68.5t88.5 33t129.5 9.5q101 0 158.5 -14t95.5 -57.5t51 -115.5t13 -196q0 -196 -13 -240zM372 326l217 -143q4 27 4 191
q0 71 -3 116t-13 82.5t-25 57t-43.5 33t-63 17.5t-88.5 4t-88.5 -4t-62 -18t-41.5 -33t-23.5 -57t-12 -82.5t-2.5 -115.5t2.5 -115t12 -82t24 -57t42 -33t62 -18t87.5 -4q96 0 140.5 9.5t69.5 41.5l-233 151z" />
    <glyph glyph-name="R" unicode="R" horiz-adv-x="699" 
d="M153 303v-303h-83v749h356q112 0 164.5 -48.5t52.5 -163.5q0 -85 -26.5 -137t-100.5 -67q117 -8 117 -143v-190h-83v170q0 72 -35 102.5t-109 30.5h-253zM153 676v-300h245q88 0 125 31.5t37 116.5q0 84 -31 118t-103 34h-273z" />
    <glyph glyph-name="S" unicode="S" horiz-adv-x="629" 
d="M35 231h83q0 -40 2 -64t10.5 -44.5t20 -30.5t36.5 -17t54 -8.5t78 -1.5q86 0 129 16t55 43.5t12 83.5q0 53 -14 78.5t-54.5 37.5t-125.5 15q-73 2 -120.5 11.5t-86 31.5t-56 63t-17.5 103q0 113 65 161t213 48q70 0 113.5 -7t81 -29t54.5 -65.5t17 -113.5h-83
q0 84 -35 113t-148 29q-119 0 -157 -27.5t-38 -103.5t45 -101.5t192 -33.5q125 -6 181 -48t56 -155q0 -130 -60.5 -176.5t-218.5 -46.5q-61 0 -98.5 3t-77 14.5t-60.5 33t-34.5 59.5t-13.5 94v35z" />
    <glyph glyph-name="T" unicode="T" horiz-adv-x="601" 
d="M340 676v-676h-83v676h-242v73h567v-73h-242z" />
    <glyph glyph-name="U" unicode="U" horiz-adv-x="736" 
d="M75 749h83v-525q0 -103 37.5 -131t172.5 -28q72 0 110.5 5t63.5 23.5t32 47.5t7 83v525h83v-527q0 -41 -4.5 -73t-15 -55.5t-22.5 -40.5t-34 -28.5t-41 -18t-51.5 -9.5t-59 -4t-68.5 -1q-47 0 -75.5 1t-63 6t-55 14.5t-42 26t-32.5 41t-18 59.5t-7 82v527z" />
    <glyph glyph-name="V" unicode="V" horiz-adv-x="643" 
d="M552 749h91l-265 -749h-122l-267 749h90l239 -682z" />
    <glyph glyph-name="W" unicode="W" horiz-adv-x="1151" 
d="M1136 749l-237 -749h-128l-196 674l-202 -674h-125l-231 749h88l204 -684l203 684h125l200 -684l210 684h89z" />
    <glyph glyph-name="X" unicode="X" horiz-adv-x="686" 
d="M136 749l212 -320l212 320h100l-246 -361l268 -388h-102l-232 344l-232 -344h-102l268 388l-246 361h100z" />
    <glyph glyph-name="Y" unicode="Y" horiz-adv-x="673" 
d="M20 749h93l227 -358l226 358h95l-283 -436v-313h-83v313z" />
    <glyph glyph-name="Z" unicode="Z" horiz-adv-x="637" 
d="M601 749v-80l-473 -596h483v-73h-584v74l469 602h-454v73h559z" />
    <glyph glyph-name="bracketleft" unicode="[" horiz-adv-x="311" 
d="M61 749h192v-65h-109v-731h109v-65h-192v861z" />
    <glyph glyph-name="backslash" unicode="\" horiz-adv-x="726" 
d="M79 749h63l577 -859h-61z" />
    <glyph glyph-name="bracketright" unicode="]" horiz-adv-x="311" 
d="M250 -112h-192v65h109v731h-109v65h192v-861z" />
    <glyph glyph-name="asciicircum" unicode="^" 
d="M118 420h-82l196 330h99l196 -330h-83l-163 271z" />
    <glyph glyph-name="underscore" unicode="_" 
d="M0 -81h562v-57h-562v57z" />
    <glyph glyph-name="grave" unicode="`" 
d="M227 742l148 -113l-26 -41l-161 99z" />
    <glyph glyph-name="a" unicode="a" horiz-adv-x="565" 
d="M420 155q0 68 -32.5 85.5t-141.5 17.5q-64 0 -92.5 -18.5t-28.5 -71.5q0 -65 27.5 -88t94.5 -23q36 0 57.5 1t46.5 6.5t38 15.5t22 29t9 46zM143 382h-80q0 52 14.5 84t46.5 46t63 18t84 4q61 0 98 -6t69.5 -24.5t47 -56t14.5 -97.5v-350h-75l3 68q-27 -48 -61 -62
t-115 -14q-107 0 -157 33.5t-50 134.5q0 94 49.5 126.5t150.5 32.5q89 0 123 -13.5t52 -47.5v75q0 50 -4.5 75.5t-24 40t-44.5 17.5t-79 3q-73 0 -99 -13.5t-26 -58.5v-15z" />
    <glyph glyph-name="b" unicode="b" horiz-adv-x="566" 
d="M289 469q-30 0 -52.5 -4.5t-38 -10.5t-25.5 -21t-16 -27.5t-8.5 -39t-3 -46t-0.5 -57.5q0 -36 0.5 -56.5t3.5 -46t9 -38.5t16 -28t26 -21.5t38.5 -11t53.5 -4.5q92 0 120.5 45.5t28.5 160.5q0 117 -28.5 161.5t-123.5 44.5zM145 749v-285q28 38 63 54t108 16q54 0 92 -14
t60 -36t34 -60t15.5 -74.5t3.5 -89.5q0 -55 -4 -92.5t-16.5 -73.5t-35.5 -56.5t-62 -33t-95 -12.5q-71 0 -104.5 15t-63.5 60l5 -67h-80v749h80z" />
    <glyph glyph-name="c" unicode="c" horiz-adv-x="537" 
d="M419 192h77q-7 -120 -55 -160t-171 -40q-130 0 -177.5 58t-47.5 213t47 213t176 58q109 0 164 -34.5t55 -127.5v-17h-77q0 66 -26.5 90t-115.5 24t-116 -37.5t-27 -165.5q0 -127 29 -168t116 -41q90 0 117 25.5t32 109.5z" />
    <glyph glyph-name="d" unicode="d" horiz-adv-x="566" 
d="M269 469q-30 0 -52.5 -4.5t-38 -10.5t-25.5 -21t-16 -27.5t-8.5 -39t-3 -46t-0.5 -57.5q0 -36 0.5 -56.5t3.5 -46t9 -38.5t16 -28t26 -21.5t38.5 -11t53.5 -4.5q92 0 120.5 45.5t28.5 160.5q0 117 -28.5 161.5t-123.5 44.5zM421 464v285h80v-749h-78l3 67
q-30 -45 -63.5 -60t-104.5 -15q-56 0 -95 12.5t-62 33t-35.5 56.5t-16.5 73.5t-4 92.5q0 53 3.5 89.5t15.5 74.5t33.5 60t59.5 36t92 14q73 0 109 -16t63 -54z" />
    <glyph glyph-name="e" unicode="e" horiz-adv-x="551" 
d="M501 246h-376q0 -118 28.5 -153.5t120.5 -35.5q93 0 120 17t27 72v16h80q0 -55 -13.5 -89.5t-45.5 -52t-69.5 -23t-98.5 -5.5q-133 0 -181 56.5t-48 216.5q0 152 52 210.5t176 58.5q122 0 175 -55t53 -190v-43zM125 311h296q0 90 -31.5 124t-116.5 34t-116.5 -34.5
t-31.5 -123.5z" />
    <glyph glyph-name="f" unicode="f" horiz-adv-x="295" 
d="M302 525v-65h-137v-460h-80v460h-80v65h80v78q0 87 39.5 121.5t128.5 34.5q24 0 46 -4v-65q-25 4 -52 4q-44 0 -63 -20.5t-19 -64.5v-84h137z" />
    <glyph glyph-name="g" unicode="g" 
d="M269 469q-30 0 -52.5 -4.5t-38 -10.5t-25.5 -21t-16 -27.5t-8.5 -39t-3 -46t-0.5 -57.5q0 -36 0.5 -56.5t3.5 -46t9 -38.5t16 -28t26 -21.5t38.5 -11t53.5 -4.5q92 0 120.5 45.5t28.5 160.5q0 117 -28.5 161.5t-123.5 44.5zM425 456l-4 68h76v-558q0 -120 -48 -160.5
t-181 -40.5q-58 0 -93 5.5t-62.5 23.5t-39 53t-11.5 91h74q3 -69 27.5 -88.5t94.5 -19.5q94 0 128.5 23t34.5 106v105q-22 -44 -66 -58t-106 -14t-103 16.5t-63 51t-30 77t-8 104.5q0 60 2.5 95.5t14 78t33 65.5t61.5 38.5t98 15.5q121 0 171 -78z" />
    <glyph glyph-name="h" unicode="h" horiz-adv-x="575" 
d="M145 749v-284q24 43 63.5 55.5t103.5 12.5q111 0 154.5 -40.5t43.5 -152.5v-340h-80v355q0 70 -27 91.5t-99 21.5q-96 0 -127.5 -36.5t-31.5 -132.5v-299h-80v749h80z" />
    <glyph glyph-name="i" unicode="i" horiz-adv-x="210" 
d="M145 749v-86h-80v86h80zM145 524v-524h-80v524h80z" />
    <glyph glyph-name="j" unicode="j" horiz-adv-x="210" 
d="M145 750v-86h-80v86h80zM65 524h80v-573q0 -71 -25 -113t-92 -42q-22 0 -38 5v55q6 -3 11 -3q18 0 30.5 5.5t19 13.5t10 23t4 25.5t0.5 30.5v573z" />
    <glyph glyph-name="k" unicode="k" horiz-adv-x="506" 
d="M145 749v-438h31l189 213h96l-223 -241l264 -283h-104l-222 246h-31v-246h-80v749h80z" />
    <glyph glyph-name="l" unicode="l" horiz-adv-x="210" 
d="M145 749v-749h-80v749h80z" />
    <glyph glyph-name="m" unicode="m" horiz-adv-x="912" 
d="M145 524v-70q52 80 168 80q137 0 167 -89q50 89 179 89q102 0 145 -43t43 -144v-347h-80v352q0 68 -24.5 92.5t-93.5 24.5q-153 0 -153 -122v-347h-80v346q0 73 -24 98t-99 25q-85 0 -116.5 -39t-31.5 -129v-301h-80v524h80z" />
    <glyph glyph-name="n" unicode="n" horiz-adv-x="576" 
d="M146 524v-59q24 43 63.5 55.5t103.5 12.5q111 0 154.5 -40.5t43.5 -152.5v-340h-80v355q0 70 -27 91.5t-99 21.5q-96 0 -127.5 -36.5t-31.5 -132.5v-299h-80v524h80z" />
    <glyph glyph-name="o" unicode="o" 
d="M511 262q0 -161 -49 -216.5t-182 -55.5q-132 0 -181 55.5t-49 215.5q0 161 49 216.5t181 55.5q133 0 182 -55t49 -216zM431 262q0 88 -13.5 131t-44 59t-93.5 16q-62 0 -92.5 -15.5t-44 -58.5t-13.5 -132t13.5 -132.5t44 -59t92.5 -15.5q63 0 93 15t44 58.5t14 133.5z
" />
    <glyph glyph-name="p" unicode="p" horiz-adv-x="566" 
d="M289 469q-30 0 -52.5 -4.5t-38 -10.5t-25.5 -21t-16 -27.5t-8.5 -39t-3 -46t-0.5 -57.5q0 -36 0.5 -56.5t3.5 -46t9 -38.5t16 -28t26 -21.5t38.5 -11t53.5 -4.5q92 0 120.5 45.5t28.5 160.5q0 117 -28.5 161.5t-123.5 44.5zM145 60v-285h-80v749h80v-60q51 70 162 70
q56 0 95 -12.5t62 -33t36 -56t17 -73t4 -92.5q0 -53 -3.5 -90t-16 -74.5t-34.5 -60t-60 -36.5t-92 -14q-60 0 -102 13.5t-68 54.5z" />
    <glyph glyph-name="q" unicode="q" horiz-adv-x="566" 
d="M269 469q-30 0 -52.5 -4.5t-38 -10.5t-25.5 -21t-16 -27.5t-8.5 -39t-3 -46t-0.5 -57.5q0 -36 0.5 -56.5t3.5 -46t9 -38.5t16 -28t26 -21.5t38.5 -11t53.5 -4.5q92 0 120.5 45.5t28.5 160.5q0 117 -28.5 161.5t-123.5 44.5zM421 524h80v-749h-80v285q-26 -41 -68.5 -54.5
t-103.5 -13.5q-54 0 -92 14t-59.5 35.5t-33.5 59t-15.5 73.5t-3.5 89q0 56 4 93.5t17 74t36 57.5t62 33.5t95 12.5q111 0 162 -69v59z" />
    <glyph glyph-name="r" unicode="r" horiz-adv-x="444" 
d="M145 524v-52q45 65 139 65q79 0 116 -38t37 -118v-31h-80v39q0 47 -20.5 65t-68.5 18q-123 0 -123 -123v-349h-80v524h80z" />
    <glyph glyph-name="s" unicode="s" horiz-adv-x="537" 
d="M50 167h80q0 -69 28.5 -89.5t110.5 -20.5q88 0 116 17.5t28 77.5q0 40 -31.5 59t-108.5 25q-43 3 -69 6.5t-59 13t-51 24.5t-31 41.5t-13 63.5q0 82 46 115.5t161 33.5q41 0 70 -2t60 -9.5t50 -21t31 -36.5t12 -56v-19h-80q0 44 -26 61.5t-109 17.5q-82 0 -108.5 -15.5
t-26.5 -60.5q0 -36 10 -52t41 -24.5t100 -11.5q105 -5 158.5 -39t53.5 -119q0 -92 -50 -123.5t-170 -31.5q-62 0 -100 6t-68 24.5t-42.5 53.5t-12.5 91z" />
    <glyph glyph-name="t" unicode="t" horiz-adv-x="388" 
d="M357 525v-65h-202v-321q0 -48 14 -65t60 -17t60 17t14 65v46h75q0 -117 -26.5 -155t-123.5 -38q-87 0 -120 31.5t-33 115.5v321h-69v65h69v126h80v-126h202z" />
    <glyph glyph-name="u" unicode="u" horiz-adv-x="566" 
d="M65 524h80v-348q0 -70 24 -95t95 -25q92 0 124.5 34.5t32.5 124.5v309h80v-524h-74v69q-31 -47 -72.5 -62.5t-107.5 -15.5q-97 0 -139.5 37t-42.5 129v367z" />
    <glyph glyph-name="v" unicode="v" horiz-adv-x="476" 
d="M383 524h85l-175 -524h-110l-175 524h85l144 -465z" />
    <glyph glyph-name="w" unicode="w" horiz-adv-x="763" 
d="M757 524l-147 -524h-114l-113 469l-113 -469h-116l-141 524h79l120 -471l115 471h114l114 -471l120 471h82z" />
    <glyph glyph-name="x" unicode="x" horiz-adv-x="476" 
d="M442 524l-167 -250l187 -274h-96l-135 212l-135 -212h-96l187 274l-167 250h92l119 -192l119 192h92z" />
    <glyph glyph-name="y" unicode="y" horiz-adv-x="469" 
d="M373 524h81l-161 -594q-26 -96 -61.5 -131.5t-97.5 -35.5q-26 0 -45 6v64q18 -5 30 -5q45 0 64.5 29.5t50.5 142.5h-34l-191 524h80l164 -466z" />
    <glyph glyph-name="z" unicode="z" horiz-adv-x="453" 
d="M50 524h379v-71l-313 -388h313v-65h-406v74l313 385h-286v65z" />
    <glyph glyph-name="braceleft" unicode="{" horiz-adv-x="561" 
d="M154 244v67q65 18 65 104v196q0 90 45 121t145 31v-73q-58 0 -82.5 -24t-24.5 -84v-180q0 -49 -11.5 -78t-49.5 -48q36 -20 48.5 -51.5t12.5 -78.5v-175q0 -62 23 -85t84 -23v-73q-55 0 -86 5t-57 22t-36.5 50.5t-10.5 89.5v179q0 45 -13.5 71t-51.5 37z" />
    <glyph glyph-name="bar" unicode="|" horiz-adv-x="561" 
d="M322 -186h-83v935h83v-935z" />
    <glyph glyph-name="braceright" unicode="}" horiz-adv-x="561" 
d="M408 308v-66q-65 -18 -65 -104v-196q0 -89 -44.5 -120.5t-145.5 -31.5v73q60 3 83.5 26t23.5 82v180q0 49 11.5 78t48.5 48q-36 20 -48 51t-12 79v175q0 61 -23.5 84.5t-83.5 23.5v73q45 0 70 -2t51.5 -11t39.5 -27t21 -49t8 -78v-179q0 -45 13.5 -71t51.5 -38z" />
    <glyph glyph-name="asciitilde" unicode="~" horiz-adv-x="561" 
d="M57 293l-47 37q60 126 154 126q41 0 117 -41t120 -41q55 0 101 84l47 -37q-60 -125 -155 -125q-42 0 -114.5 39t-111.5 39q-38 0 -63 -21t-48 -60z" />
    <glyph glyph-name="currency" unicode="&#xa4;" horiz-adv-x="720" 
d="M134 543l38 38l50 -50q60 43 139 43t135 -43l51 51l38 -36l-49 -49q40 -50 40 -131q0 -83 -42 -134l50 -50l-38 -38l-50 50q-58 -43 -141 -43q-69 0 -133 43l-51 -51l-38 36l49 49q-40 53 -40 129q0 82 42 136zM358 501q-57 0 -96.5 -38t-39.5 -95q0 -68 38.5 -106
t97.5 -38q58 0 98 39.5t40 102.5q0 57 -40.5 96t-97.5 39z" />
    <glyph glyph-name="brokenbar" unicode="&#xa6;" horiz-adv-x="556" 
d="M319 419h-80v330h80v-330zM319 -50h-80v330h80v-330z" />
    <glyph glyph-name="section" unicode="&#xa7;" horiz-adv-x="687" 
d="M440 352l-162 47q-41 13 -55 13q-66 0 -66 -98q0 -51 16.5 -69.5t66.5 -32.5l169 -47q38 -10 53 -10q41 0 54.5 31t13.5 84q0 35 -22 52t-68 30zM586 559h-73q0 85 -29 107t-137 22q-75 0 -107.5 -8.5t-42.5 -27.5t-10 -64q0 -54 19 -73.5t83 -39.5l167 -52
q48 -15 68 -23t41.5 -25.5t28 -43.5t6.5 -69q0 -50 -15 -82.5t-55 -50.5q46 -20 58 -53.5t12 -96.5q0 -115 -50.5 -153t-202.5 -38q-44 0 -71 1t-57.5 5.5t-48 13.5t-35.5 23.5t-26.5 36.5t-14 53.5t-5.5 72.5h75v-32q0 -67 35.5 -85.5t147.5 -18.5q102 0 142.5 23t40.5 84
q0 34 -3.5 53t-18 32t-30 18.5t-52.5 15.5l-230 61q-63 17 -87.5 53t-24.5 109q0 56 17.5 88t67.5 43q-58 37 -58 141q0 59 11 94t41.5 54t71 24.5t112.5 5.5q49 0 77 -1.5t59.5 -8t47.5 -19t30.5 -34.5t19.5 -55t5 -80z" />
    <glyph glyph-name="copyright" unicode="&#xa9;" horiz-adv-x="879" 
d="M647 332q-7 -83 -64 -134t-141 -51q-96 0 -155 64.5t-59 161.5q0 98 59 165t156 67q74 0 132 -41.5t66 -112.5h-47q-11 51 -54 78t-98 27q-73 0 -114.5 -53.5t-41.5 -129.5q0 -75 41.5 -126t114.5 -51q65 0 108 36.5t51 99.5h46zM440 761q159 0 272.5 -114t113.5 -273
t-113.5 -273.5t-272.5 -114.5t-273 114t-114 274t113.5 273.5t273.5 113.5zM440 717q-141 0 -240.5 -101t-99.5 -242q0 -142 99.5 -243t240.5 -101t240 101.5t99 242.5t-99 242t-240 101z" />
    <glyph glyph-name="guillemotleft" unicode="&#xab;" horiz-adv-x="503" 
d="M191 575l58 -35l-118 -251l132 -253l-56 -36l-150 289zM376 575l57 -35l-118 -251l131 -253l-54 -36l-152 289z" />
    <glyph glyph-name="logicalnot" unicode="&#xac;" horiz-adv-x="561" 
d="M476 155v203h-440v47h487v-250h-47z" />
    <glyph glyph-name="registered" unicode="&#xae;" horiz-adv-x="879" 
d="M327 332v-182h-51v455h217q71 0 100.5 -29.5t29.5 -101.5q0 -56 -13.5 -83t-61.5 -38q75 -7 75 -88v-115h-49v105q0 42 -22.5 59.5t-68.5 17.5h-156zM327 560v-185h149q54 0 76 17.5t22 67.5q0 57 -13.5 78.5t-65.5 21.5h-168zM440 761q159 0 272.5 -114t113.5 -273
t-113.5 -273.5t-272.5 -114.5t-273 114t-114 274t113.5 273.5t273.5 113.5zM440 717q-141 0 -240.5 -101t-99.5 -242q0 -142 99.5 -243t240.5 -101t240 101.5t99 242.5t-99 242t-240 101z" />
    <glyph glyph-name="degree" unicode="&#xb0;" 
d="M440 586q0 -65 -47.5 -112t-111.5 -47q-63 0 -111 46.5t-48 109.5q0 68 45.5 115.5t113.5 47.5q65 0 112 -47.5t47 -112.5zM398 586q0 48 -34.5 83.5t-82.5 35.5t-82.5 -36t-34.5 -84q0 -47 34.5 -82t81.5 -35q48 0 83 35t35 83z" />
    <glyph glyph-name="plusminus" unicode="&#xb1;" 
d="M26 548h230v217h47v-217h232v-47h-232v-213h-47v213h-230v47zM26 238h509v-47h-509v47z" />
    <glyph glyph-name="mu" unicode="&#xb5;" horiz-adv-x="588" 
d="M65 537h80v-335q0 -62 42 -103.5t104 -41.5q72 0 112 56.5t40 129.5v294h80v-537h-80v105q-19 -53 -59 -83t-95 -30q-96 0 -144 76v-255h-80v724z" />
    <glyph glyph-name="mu" unicode="&#x3bc;" horiz-adv-x="588" 
d="M65 537h80v-335q0 -62 42 -103.5t104 -41.5q72 0 112 56.5t40 129.5v294h80v-537h-80v105q-19 -53 -59 -83t-95 -30q-96 0 -144 76v-255h-80v724z" />
    <glyph glyph-name="paragraph" unicode="&#xb6;" horiz-adv-x="689" 
d="M627 -210h-76v889h-89v-889h-76v504h-118q-60 0 -102.5 5.5t-71.5 19t-46 29.5t-26 43.5t-12 55t-3 69.5q0 75 8 115t36 69.5t78.5 39t138.5 9.5h359v-959zM386 364v315h-169q-82 0 -106 -29t-24 -127q0 -94 35.5 -126.5t138.5 -32.5h125z" />
    <glyph glyph-name="periodcentered" unicode="&#xb7;" horiz-adv-x="687" 
d="M388 324v-101h-89v101h89z" />
    <glyph glyph-name="periodcentered" unicode="&#x2219;" horiz-adv-x="687" 
d="M388 324v-101h-89v101h89z" />
    <glyph glyph-name="guillemotright" unicode="&#xbb;" horiz-adv-x="503" 
d="M312 575l134 -286l-151 -289l-55 36l131 253l-118 251zM127 575l136 -286l-153 -289l-53 36l130 253l-118 251z" />
    <glyph glyph-name="afii10023" unicode="&#x401;" horiz-adv-x="596" 
d="M153 418h381v-73h-381v-272h397v-73h-480v749h482v-73h-399v-258zM421 882v-86h-80v86h80zM270 882v-86h-80v86h80z" />
    <glyph glyph-name="afii10051" unicode="&#x402;" horiz-adv-x="803" 
d="M340 676v-258h196q123 0 172.5 -44.5t49.5 -159.5q0 -114 -51 -164t-169 -50h-117v73h111q86 0 114.5 31t28.5 110q0 83 -30.5 107t-123.5 24h-181v-345h-83v676h-242v73h567v-73h-242z" />
    <glyph glyph-name="afii10052" unicode="&#x403;" horiz-adv-x="545" 
d="M71 749h463v-73h-380v-676h-83v749zM445 946l-139 -150h-68l102 150h105z" />
    <glyph glyph-name="afii10053" unicode="&#x404;" horiz-adv-x="682" 
d="M548 528q-6 51 -14 77.5t-29.5 46.5t-58 26t-101.5 6q-87 0 -131.5 -20.5t-65 -77t-20.5 -168.5h383v-73h-383q0 -65 3 -106.5t12.5 -75t23 -51t39 -29t56.5 -15t80 -3.5q96 0 140.5 14t59.5 46.5t15 104.5h83q0 -94 -22 -142.5t-86 -72t-190 -23.5q-77 0 -125.5 10
t-84 32.5t-53.5 68t-26 108t-8 161.5q0 123 12.5 195.5t48 116.5t89.5 58.5t147 14.5q162 0 220.5 -46.5t66.5 -182.5h-81z" />
    <glyph glyph-name="afii10054" unicode="&#x405;" horiz-adv-x="629" 
d="M35 231h83q0 -40 2 -64t10.5 -44.5t20 -30.5t36.5 -17t54 -8.5t78 -1.5q86 0 129 16t55 43.5t12 83.5q0 53 -14 78.5t-54.5 37.5t-125.5 15q-73 2 -120.5 11.5t-86 31.5t-56 63t-17.5 103q0 113 65 161t213 48q70 0 113.5 -7t81 -29t54.5 -65.5t17 -113.5h-83
q0 84 -35 113t-148 29q-119 0 -157 -27.5t-38 -103.5t45 -101.5t192 -33.5q125 -6 181 -48t56 -155q0 -130 -60.5 -176.5t-218.5 -46.5q-61 0 -98.5 3t-77 14.5t-60.5 33t-34.5 59.5t-13.5 94v35z" />
    <glyph glyph-name="afii10055" unicode="&#x406;" horiz-adv-x="223" 
d="M153 749v-749h-83v749h83z" />
    <glyph glyph-name="afii10056" unicode="&#x407;" horiz-adv-x="243" 
d="M80 882v-86h-80v86h80zM243 882v-86h-80v86h80zM163 749v-749h-83v749h83z" />
    <glyph glyph-name="afii10057" unicode="&#x408;" horiz-adv-x="561" 
d="M408 749h83v-543q0 -105 -50 -159.5t-180 -54.5q-71 0 -117 12.5t-71 40.5t-34.5 65.5t-9.5 95.5v67h83v-55q0 -90 29.5 -121.5t119.5 -31.5q78 0 112.5 36t34.5 118v530z" />
    <glyph glyph-name="afii10058" unicode="&#x409;" horiz-adv-x="1071" 
d="M128 749h439v-331h227q123 0 172.5 -44.5t49.5 -159.5q0 -114 -51 -164t-169 -50h-312v676h-273v-457q0 -111 -32 -165t-109 -54h-53v73h20q51 0 71 26.5t20 110.5v539zM567 345v-272h223q86 0 114.5 31t28.5 110q0 83 -30.5 107t-123.5 24h-212z" />
    <glyph glyph-name="afii10059" unicode="&#x40a;" horiz-adv-x="1096" 
d="M153 418h356v331h83v-331h227q123 0 172.5 -44.5t49.5 -159.5q0 -114 -51 -164t-169 -50h-312v345h-356v-345h-83v749h83v-331zM592 345v-272h223q86 0 114.5 31t28.5 110q0 83 -30.5 107t-123.5 24h-212z" />
    <glyph glyph-name="afii10060" unicode="&#x40b;" horiz-adv-x="749" 
d="M340 676v-258h122q123 0 172.5 -44.5t49.5 -159.5v-214h-83v214q0 83 -30.5 107t-123.5 24h-107v-345h-83v676h-242v73h567v-73h-242z" />
    <glyph glyph-name="afii10061" unicode="&#x40c;" horiz-adv-x="696" 
d="M153 749v-331h74l307 331h111l-344 -362l384 -387h-115l-343 345h-74v-345h-83v749h83zM468 946l-139 -150h-68l102 150h105z" />
    <glyph glyph-name="afii10062" unicode="&#x40e;" horiz-adv-x="660" 
d="M20 749h90l231 -519l211 519h86l-262 -632q-47 -117 -140 -117h-78v73h49q39 0 57 14.5t32 55.5zM441 882h57q0 -68 -32 -91.5t-122 -23.5q-85 0 -119 24t-34 91h57q0 -37 23 -47.5t73 -10.5q52 0 74.5 10t22.5 48z" />
    <glyph glyph-name="afii10145" unicode="&#x40f;" horiz-adv-x="744" 
d="M153 749v-676h438v676h83v-749h-262v-172h-80v172h-262v749h83z" />
    <glyph glyph-name="afii10017" unicode="&#x410;" horiz-adv-x="720" 
d="M26 0l273 749h121l279 -749h-89l-56 154h-378l-60 -154h-90zM527 227l-166 460l-165 -460h331z" />
    <glyph glyph-name="afii10018" unicode="&#x411;" horiz-adv-x="683" 
d="M73 749h495v-73h-412v-258h250q123 0 172.5 -44.5t49.5 -159.5q0 -114 -51 -164t-169 -50h-335v749zM156 345v-272h246q86 0 114.5 31t28.5 110q0 83 -30.5 107t-123.5 24h-235z" />
    <glyph glyph-name="afii10019" unicode="&#x412;" horiz-adv-x="691" 
d="M153 345v-272h231q102 0 138.5 25t36.5 113t-27 111t-113 23h-266zM153 676v-258h238q84 0 115 29.5t31 109.5q0 69 -24 94t-91 25h-269zM70 0v749h361q98 0 143.5 -42.5t45.5 -141.5q0 -73 -17 -112t-76 -60q70 -19 92.5 -57.5t22.5 -118.5q0 -107 -43.5 -162
t-146.5 -55h-382z" />
    <glyph glyph-name="afii10020" unicode="&#x413;" horiz-adv-x="545" 
d="M71 749h463v-73h-380v-676h-83v749z" />
    <glyph glyph-name="afii10021" unicode="&#x414;" horiz-adv-x="743" 
d="M78 73v1q76 115 76 289v386h509v-676h54v-245h-76v172h-533v-172h-76v245h46zM580 676h-343v-303q0 -110 -14.5 -174.5t-50.5 -125.5h408v603z" />
    <glyph glyph-name="afii10022" unicode="&#x415;" horiz-adv-x="596" 
d="M153 418h381v-73h-381v-272h397v-73h-480v749h482v-73h-399v-258z" />
    <glyph glyph-name="afii10024" unicode="&#x416;" horiz-adv-x="1122" 
d="M95 749h104l253 -331h73v331h83v-331h72l254 331h103l-282 -364l336 -385h-120l-291 345h-72v-345h-83v345h-73l-291 -345h-120l336 385z" />
    <glyph glyph-name="afii10025" unicode="&#x417;" horiz-adv-x="683" 
d="M228 345v73h169q89 0 118 27t29 112q0 71 -42.5 99t-150.5 28q-114 0 -152 -30.5t-44 -121.5h-83q3 72 19.5 116.5t53 68.5t83.5 32t123 8q149 0 212.5 -43t63.5 -147q0 -87 -29 -129t-95 -52q79 -11 108 -54t29 -133q0 -114 -66.5 -160.5t-222.5 -46.5q-172 0 -232 43
t-60 164v25h83v-24q0 -88 38 -111.5t171 -23.5q122 0 164 34t42 112q0 68 -36.5 101t-118.5 33h-174z" />
    <glyph glyph-name="afii10026" unicode="&#x418;" horiz-adv-x="782" 
d="M153 749v-692l426 692h133v-749h-83v685l-427 -685h-132v749h83z" />
    <glyph glyph-name="afii10027" unicode="&#x419;" horiz-adv-x="782" 
d="M153 749v-691l426 691h133v-749h-83v686l-427 -686h-132v749h83zM475 882h57q0 -68 -32 -91.5t-122 -23.5q-85 0 -119 24t-34 91h57q0 -37 23 -47.5t73 -10.5q52 0 74.5 10t22.5 48z" />
    <glyph glyph-name="afii10028" unicode="&#x41a;" horiz-adv-x="696" 
d="M153 749v-331h74l307 331h111l-344 -362l384 -387h-115l-343 345h-74v-345h-83v749h83z" />
    <glyph glyph-name="afii10029" unicode="&#x41b;" horiz-adv-x="726" 
d="M128 749h528v-749h-83v676h-362v-457q0 -111 -32 -165t-109 -54h-53v73h20q51 0 71 26.5t20 110.5v539z" />
    <glyph glyph-name="afii10030" unicode="&#x41c;" horiz-adv-x="946" 
d="M207 749l266 -642l266 642h137v-749h-83v689l-283 -689h-72l-285 682v-682h-83v749h137z" />
    <glyph glyph-name="afii10031" unicode="&#x41d;" horiz-adv-x="744" 
d="M153 418h438v331h83v-749h-83v345h-438v-345h-83v749h83v-331z" />
    <glyph glyph-name="afii10032" unicode="&#x41e;" horiz-adv-x="729" 
d="M50 374q0 82 5.5 139.5t20.5 101.5t37 70.5t59 43t82.5 22.5t111.5 6q99 0 155.5 -14.5t94 -58t50 -115.5t12.5 -195t-12.5 -194.5t-50 -115t-95 -58t-156.5 -14.5t-156 14.5t-94.5 58t-50.5 115t-13 194.5zM133 374q0 -71 2.5 -115t12.5 -82t24.5 -57t42 -33t62 -18
t88.5 -4t88.5 4t61.5 18t41.5 33t24 57t12 82t2.5 115q0 72 -2.5 116t-12 82t-23.5 57t-41.5 33t-62 18t-88.5 4q-55 0 -89.5 -4t-62.5 -18t-42 -33t-23.5 -57t-12 -82t-2.5 -116z" />
    <glyph glyph-name="afii10033" unicode="&#x41f;" horiz-adv-x="744" 
d="M70 749h604v-749h-83v676h-438v-676h-83v749z" />
    <glyph glyph-name="afii10034" unicode="&#x420;" horiz-adv-x="666" 
d="M153 293v-293h-83v749h357q108 0 153 -50t45 -163q0 -137 -53.5 -190t-195.5 -53h-223zM153 676v-310h199q106 0 148 31.5t42 127.5q0 85 -24.5 118t-102.5 33h-262z" />
    <glyph glyph-name="afii10035" unicode="&#x421;" horiz-adv-x="671" 
d="M565 250h81q0 -148 -61.5 -203t-235.5 -55q-90 0 -143 14.5t-90.5 56.5t-51.5 115t-14 194q0 159 28.5 241.5t90 113t180.5 30.5q89 0 144.5 -13.5t85.5 -46.5t41.5 -74.5t15.5 -110.5h-81q-6 55 -13.5 83t-29.5 51t-59.5 30.5t-103.5 7.5q-89 0 -133 -25t-63.5 -90.5
t-19.5 -196.5q0 -80 6.5 -131.5t20 -87.5t40 -54.5t61 -26t88.5 -7.5q132 0 174 36.5t42 148.5z" />
    <glyph glyph-name="afii10036" unicode="&#x422;" horiz-adv-x="601" 
d="M340 676v-676h-83v676h-242v73h567v-73h-242z" />
    <glyph glyph-name="afii10037" unicode="&#x423;" horiz-adv-x="660" 
d="M20 749h90l231 -519l211 519h86l-262 -632q-47 -117 -140 -117h-78v73h49q39 0 57 14.5t32 55.5z" />
    <glyph glyph-name="afii10038" unicode="&#x424;" horiz-adv-x="872" 
d="M393 749h83v-89h95q130 0 191.5 -63.5t61.5 -211.5q0 -149 -61 -211.5t-191 -62.5h-96v-111h-83v111h-93q-132 0 -193.5 62.5t-61.5 211.5t61.5 212t193.5 63h93v89zM476 589v-407h87q96 0 137 48t41 155t-41.5 155.5t-137.5 48.5h-86zM393 182v407h-87
q-99 0 -138.5 -47.5t-39.5 -156.5q0 -108 39.5 -155.5t138.5 -47.5h87z" />
    <glyph glyph-name="afii10039" unicode="&#x425;" horiz-adv-x="686" 
d="M136 749l212 -320l212 320h100l-246 -361l268 -388h-102l-232 344l-232 -344h-102l268 388l-246 361h100z" />
    <glyph glyph-name="afii10040" unicode="&#x426;" horiz-adv-x="752" 
d="M153 749v-676h438v676h83v-676h56v-245h-80v172h-580v749h83z" />
    <glyph glyph-name="afii10041" unicode="&#x427;" horiz-adv-x="694" 
d="M60 749h83v-190q0 -36 4.5 -61t16.5 -41.5t25 -26t38.5 -14.5t47.5 -6t60 -1q142 0 206 14v326h83v-749h-83v352q-72 -16 -226 -16q-152 0 -203.5 48t-51.5 190v175z" />
    <glyph glyph-name="afii10042" unicode="&#x428;" horiz-adv-x="1153" 
d="M535 749h83v-676h382v676h83v-749h-1013v749h83v-676h382v676z" />
    <glyph glyph-name="afii10043" unicode="&#x429;" horiz-adv-x="1173" 
d="M535 749h83v-676h382v676h83v-676h56v-245h-80v172h-989v749h83v-676h382v676z" />
    <glyph glyph-name="afii10044" unicode="&#x42a;" horiz-adv-x="740" 
d="M219 749v-331h250q123 0 172.5 -44.5t49.5 -159.5q0 -114 -51 -164t-169 -50h-335v676h-136v73h219zM219 345v-272h246q86 0 114.5 31t28.5 110q0 83 -30.5 107t-123.5 24h-235z" />
    <glyph glyph-name="afii10045" unicode="&#x42b;" horiz-adv-x="899" 
d="M153 749v-331h250q123 0 172.5 -44.5t49.5 -159.5q0 -114 -51 -164t-169 -50h-335v749h83zM153 345v-272h246q86 0 114.5 31t28.5 110q0 83 -30.5 107t-123.5 24h-235zM829 749v-749h-83v749h83z" />
    <glyph glyph-name="afii10046" unicode="&#x42c;" horiz-adv-x="680" 
d="M153 749v-331h250q123 0 172.5 -44.5t49.5 -159.5q0 -114 -51 -164t-169 -50h-335v749h83zM153 345v-272h246q86 0 114.5 31t28.5 110q0 83 -30.5 107t-123.5 24h-235z" />
    <glyph glyph-name="afii10047" unicode="&#x42d;" horiz-adv-x="681" 
d="M137 528h-83q8 133 72 181t215 48q89 0 143 -16t90 -60t49.5 -116.5t13.5 -191.5q0 -117 -14 -189.5t-50 -116t-90 -59.5t-142 -16q-168 0 -233 52t-65 186h83q0 -99 45 -132t170 -33q56 0 93.5 10t61.5 28.5t36.5 54t17 78t4.5 109.5h-341v73h341q0 82 -12 134t-39.5 81
t-65 40t-96.5 11q-116 0 -154.5 -30.5t-49.5 -125.5z" />
    <glyph glyph-name="afii10048" unicode="&#x42e;" horiz-adv-x="953" 
d="M153 749v-331h159q0 108 15.5 175t54 103.5t89.5 48.5t135 12q85 0 134.5 -12t88 -52t53.5 -116t15 -202q0 -101 -11 -169.5t-31 -111t-57.5 -65t-80.5 -30t-111 -7.5t-111.5 7.5t-81.5 28.5t-58.5 60.5t-31.5 102t-11 154.5h-159v-345h-83v749h83zM606 65q48 0 78 5.5
t57.5 23t41.5 51.5t22.5 90.5t8.5 139.5q0 84 -8.5 140t-22.5 89.5t-42 51t-57.5 23t-77.5 5.5q-45 0 -73 -3.5t-54 -14.5t-40 -31t-25 -55.5t-15 -84.5t-4 -120q0 -106 9 -166t36 -93t63 -42t103 -9z" />
    <glyph glyph-name="afii10049" unicode="&#x42f;" horiz-adv-x="694" 
d="M541 300h-231l-168 -300h-101l177 310q-75 13 -120 69.5t-45 150.5q0 115 59.5 167t179.5 52h332v-749h-83v300zM541 373v303h-266q-77 0 -108 -39t-31 -123q0 -68 46 -104.5t133 -36.5h226z" />
    <glyph glyph-name="afii10065" unicode="&#x430;" horiz-adv-x="565" 
d="M420 155q0 68 -32.5 85.5t-141.5 17.5q-64 0 -92.5 -18.5t-28.5 -71.5q0 -65 27.5 -88t94.5 -23q36 0 57.5 1t46.5 6.5t38 15.5t22 29t9 46zM143 382h-80q0 52 14.5 84t46.5 46t63 18t84 4q61 0 98 -6t69.5 -24.5t47 -56t14.5 -97.5v-350h-75l3 68q-27 -48 -61 -62
t-115 -14q-107 0 -157 33.5t-50 134.5q0 94 49.5 126.5t150.5 32.5q89 0 123 -13.5t52 -47.5v75q0 50 -4.5 75.5t-24 40t-44.5 17.5t-79 3q-73 0 -99 -13.5t-26 -58.5v-15z" />
    <glyph glyph-name="afii10066" unicode="&#x431;" horiz-adv-x="568" 
d="M120 432q21 42 58.5 62t100.5 20q137 0 185 -57t48 -197q0 -72 -9 -118t-33.5 -82t-70.5 -52t-119 -16t-118.5 16t-70 52t-33 82t-8.5 118v162q0 261 211 261q67 0 93.5 3t35.5 11t9 29h67q0 -63 -38.5 -84t-137.5 -21q-85 0 -127.5 -39t-42.5 -150zM279 449
q-89 0 -118.5 -38t-29.5 -152q0 -117 29 -159.5t122 -42.5q92 0 121 42.5t29 160.5q0 115 -30 152t-123 37z" />
    <glyph glyph-name="afii10067" unicode="&#x432;" horiz-adv-x="559" 
d="M145 246v-181h185q44 0 68.5 19t24.5 69q0 93 -93 93h-185zM145 460v-149h183q50 0 68 15t18 58q0 45 -20 60.5t-66 15.5h-183zM65 0v525h265q78 0 121 -29t43 -106q0 -40 -23.5 -70.5t-72.5 -38.5q105 -25 105 -128q0 -86 -41.5 -119.5t-117.5 -33.5h-279z" />
    <glyph glyph-name="afii10068" unicode="&#x433;" horiz-adv-x="434" 
d="M65 524h353v-65h-273v-459h-80v524z" />
    <glyph glyph-name="afii10069" unicode="&#x434;" horiz-adv-x="559" 
d="M67 65q29 48 39.5 95.5t10.5 126.5v237h371v-459h55v-214h-73v149h-378v-149h-73v214h48zM408 65v394h-211v-187q0 -131 -46 -207h257z" />
    <glyph glyph-name="afii10070" unicode="&#x435;" horiz-adv-x="551" 
d="M501 246h-376q0 -118 28.5 -153.5t120.5 -35.5q93 0 120 16.5t27 71.5v17h80q0 -55 -13.5 -89.5t-45.5 -52t-69.5 -23t-98.5 -5.5q-133 0 -181 56.5t-48 216.5q0 152 52 210.5t176 58.5q122 0 175 -55t53 -190v-43zM125 311h296q0 90 -31.5 124t-116.5 34t-116.5 -34.5
t-31.5 -123.5z" />
    <glyph glyph-name="afii10072" unicode="&#x436;" horiz-adv-x="747" 
d="M335 525h80v-214h31l165 214h85l-192 -243l234 -282h-94l-198 246h-31v-246h-80v246h-32l-198 -246h-94l234 282l-193 243h86l166 -214h31v214z" />
    <glyph glyph-name="afii10073" unicode="&#x437;" horiz-adv-x="543" 
d="M148 381h-80v9q0 84 50.5 114t154.5 30q114 0 162 -34t48 -105q0 -43 -22.5 -78.5t-69.5 -43.5q101 -16 101 -118q0 -90 -47 -126.5t-167 -36.5q-134 0 -180 35.5t-46 131.5h80q0 -67 23 -84.5t115 -17.5q91 0 116.5 18t25.5 77q0 94 -91 94h-118v65h118q41 0 61.5 16
t20.5 62q0 41 -25 60.5t-100 19.5q-77 0 -103.5 -13.5t-26.5 -65.5v-9z" />
    <glyph glyph-name="afii10074" unicode="&#x438;" horiz-adv-x="577" 
d="M145 524v-429l269 429h98v-524h-80v426l-267 -426h-100v524h80z" />
    <glyph glyph-name="afii10075" unicode="&#x439;" horiz-adv-x="577" 
d="M145 524v-428l268 428h99v-524h-80v427l-267 -427h-100v524h80zM357 665h48q0 -57 -25.5 -77.5t-91.5 -20.5t-92 20.5t-26 77.5h48q0 -31 15.5 -40.5t54.5 -9.5t54 9.5t15 40.5z" />
    <glyph glyph-name="afii10076" unicode="&#x43a;" horiz-adv-x="506" 
d="M145 524v-213h31l189 213h96l-223 -241l264 -283h-104l-222 246h-31v-246h-80v524h80z" />
    <glyph glyph-name="afii10077" unicode="&#x43b;" horiz-adv-x="550" 
d="M101 524h384v-524h-80v459h-224v-308q0 -151 -126 -151h-39v65h12q44 0 58.5 16t14.5 72v371z" />
    <glyph glyph-name="afii10078" unicode="&#x43c;" horiz-adv-x="732" 
d="M365 91l174 433h128v-524h-80v455l-187 -455h-70l-185 456v-456h-80v524h126z" />
    <glyph glyph-name="afii10079" unicode="&#x43d;" horiz-adv-x="565" 
d="M145 524v-213h275v213h80v-524h-80v246h-275v-246h-80v524h80z" />
    <glyph glyph-name="afii10080" unicode="&#x43e;" 
d="M511 262q0 -161 -49 -216.5t-182 -55.5q-132 0 -181 55.5t-49 215.5q0 161 49 216.5t181 55.5q133 0 182 -55t49 -216zM431 262q0 88 -13.5 131t-44 59t-93.5 16q-62 0 -92.5 -15.5t-44 -58.5t-13.5 -132t13.5 -132.5t44 -59t92.5 -15.5q63 0 93 15t44 58.5t14 133.5z
" />
    <glyph glyph-name="afii10081" unicode="&#x43f;" horiz-adv-x="565" 
d="M65 524h435v-524h-80v459h-275v-459h-80v524z" />
    <glyph glyph-name="afii10082" unicode="&#x440;" horiz-adv-x="566" 
d="M289 469q-30 0 -52.5 -4.5t-38 -10.5t-25.5 -21t-16 -27.5t-8.5 -39t-3 -46t-0.5 -57.5q0 -36 0.5 -56.5t3.5 -46t9 -38.5t16 -28t26 -21.5t38.5 -11t53.5 -4.5q92 0 120.5 45.5t28.5 160.5q0 117 -28.5 161.5t-123.5 44.5zM145 60v-285h-80v749h80v-60q51 70 162 70
q56 0 95 -12.5t62 -33t36 -56t17 -73t4 -92.5q0 -53 -3.5 -90t-16 -74.5t-34.5 -60t-60 -36.5t-92 -14q-60 0 -102 13.5t-68 54.5z" />
    <glyph glyph-name="afii10083" unicode="&#x441;" horiz-adv-x="537" 
d="M419 192h77q-7 -120 -55 -160t-171 -40q-130 0 -177.5 58t-47.5 213t47 213t176 58q109 0 164 -34.5t55 -127.5v-17h-77q0 66 -26.5 90t-115.5 24t-116 -37.5t-27 -165.5q0 -127 29 -168t116 -41q90 0 117 25.5t32 109.5z" />
    <glyph glyph-name="afii10084" unicode="&#x442;" horiz-adv-x="458" 
d="M188 0v459h-181v65h442v-65h-181v-459h-80z" />
    <glyph glyph-name="afii10085" unicode="&#x443;" horiz-adv-x="469" 
d="M373 524h81l-161 -594q-26 -96 -61.5 -131.5t-97.5 -35.5q-26 0 -45 6v64q18 -5 30 -5q45 0 64.5 29.5t50.5 142.5h-34l-191 524h80l164 -466z" />
    <glyph glyph-name="afii10086" unicode="&#x444;" horiz-adv-x="820" 
d="M370 -225v307q-18 -42 -59 -66t-92 -24q-39 0 -68 8.5t-47.5 27.5t-29.5 39.5t-16 56t-6.5 65t-1.5 76.5q0 49 1.5 79t7 64.5t17 54.5t30.5 38t48.5 25.5t70.5 7.5q100 0 145 -82v298h80v-298q48 82 148 82q47 0 79 -12.5t50 -33t28 -57.5t12.5 -73t2.5 -93q0 -40 -1 -66
t-5 -57.5t-11 -51.5t-19.5 -40.5t-30.5 -32t-44.5 -18.5t-60.5 -7q-50 0 -90 24t-58 68v-309h-80zM251 469q-70 0 -95.5 -45t-25.5 -144q0 -124 24.5 -173.5t96.5 -49.5q71 0 95 50t24 173q0 100 -26 144.5t-93 44.5zM568 469q-67 0 -92.5 -44t-25.5 -145q0 -123 23.5 -173
t94.5 -50q72 0 97 51t25 175q0 98 -25.5 142t-96.5 44z" />
    <glyph glyph-name="afii10087" unicode="&#x445;" horiz-adv-x="476" 
d="M442 524l-167 -250l187 -274h-96l-135 212l-135 -212h-96l187 274l-167 250h92l119 -192l119 192h92z" />
    <glyph glyph-name="afii10088" unicode="&#x446;" horiz-adv-x="581" 
d="M145 524v-459h274v459h80v-459h55v-214h-73v149h-416v524h80z" />
    <glyph glyph-name="afii10089" unicode="&#x447;" horiz-adv-x="538" 
d="M65 524h80v-132q0 -62 22 -81t91 -19q90 0 135 24v208h80v-524h-80v271h-4q-18 -27 -47.5 -35.5t-106.5 -8.5q-86 0 -128 33.5t-42 113.5v150z" />
    <glyph glyph-name="afii10090" unicode="&#x448;" horiz-adv-x="864" 
d="M145 524v-459h247v459h80v-459h247v459h80v-524h-734v524h80z" />
    <glyph glyph-name="afii10091" unicode="&#x449;" horiz-adv-x="868" 
d="M145 524v-459h247v459h80v-459h247v459h80v-459h55v-214h-73v149h-716v524h80z" />
    <glyph glyph-name="afii10092" unicode="&#x44a;" horiz-adv-x="573" 
d="M0 524h184v-213h191q153 0 153 -155q0 -81 -42 -118.5t-110 -37.5h-272v459h-104v65zM184 246v-181h165q56 0 77.5 19.5t21.5 71.5q0 53 -22 71.5t-81 18.5h-161z" />
    <glyph glyph-name="afii10093" unicode="&#x44b;" horiz-adv-x="734" 
d="M145 524v-213h191q153 0 153 -155q0 -81 -42 -118.5t-110 -37.5h-272v524h80zM145 246v-181h165q56 0 77.5 19.5t21.5 71.5q0 53 -22 71.5t-81 18.5h-161zM669 524v-524h-80v524h80z" />
    <glyph glyph-name="afii10094" unicode="&#x44c;" horiz-adv-x="534" 
d="M145 524v-213h191q153 0 153 -155q0 -81 -42 -118.5t-110 -37.5h-272v524h80zM145 246v-181h165q56 0 77.5 19.5t21.5 71.5q0 53 -22 71.5t-81 18.5h-161z" />
    <glyph glyph-name="afii10095" unicode="&#x44d;" horiz-adv-x="552" 
d="M140 380h-75q11 91 61.5 122.5t157.5 31.5q127 0 175 -56.5t48 -213.5q0 -160 -45 -216t-179 -56q-86 0 -136 21t-68.5 55.5t-22.5 91.5h78q5 -62 34 -82.5t115 -20.5q91 0 117.5 35.5t26.5 153.5h-225v65h225q0 92 -28.5 125t-114.5 33q-80 0 -108 -17t-36 -72z" />
    <glyph glyph-name="afii10096" unicode="&#x44e;" horiz-adv-x="776" 
d="M145 311h124q8 130 55 176t175 46q90 0 137.5 -20.5t71 -79t23.5 -171.5t-23.5 -172t-71 -79.5t-137.5 -20.5q-67 0 -108.5 10.5t-70 39t-40 77.5t-11.5 129h-124v-246h-80v524h80v-213zM651 262q0 127 -29 166.5t-123 39.5q-64 0 -94.5 -16t-43 -58.5t-12.5 -132.5
t12.5 -132.5t42.5 -58t95 -15.5q66 0 96.5 15.5t43 58t12.5 133.5z" />
    <glyph glyph-name="afii10097" unicode="&#x44f;" horiz-adv-x="535" 
d="M390 211h-158l-104 -211h-90l114 221q-43 6 -75.5 46.5t-32.5 100.5q0 82 42.5 119t111.5 37h272v-524h-80v211zM390 276v183h-166q-54 0 -77 -20.5t-23 -70.5q0 -56 21.5 -74t80.5 -18h164z" />
    <glyph glyph-name="afii10071" unicode="&#x451;" horiz-adv-x="551" 
d="M501 246h-376q0 -118 28.5 -153.5t120.5 -35.5q93 0 120 17t27 72v16h80q0 -55 -13.5 -89.5t-45.5 -52t-69.5 -23t-98.5 -5.5q-133 0 -181 56.5t-48 216.5q0 152 52 210.5t176 58.5q122 0 175 -55t53 -190v-43zM125 311h296q0 90 -31.5 124t-116.5 34t-116.5 -34.5
t-31.5 -123.5zM390 665v-86h-80v86h80zM249 665v-86h-80v86h80z" />
    <glyph glyph-name="afii10099" unicode="&#x452;" horiz-adv-x="575" 
d="M145 749v-68h200v-57h-200v-159q24 43 63.5 55.5t103.5 12.5q111 0 154.5 -40.5t43.5 -152.5v-190q0 -165 -47 -225.5t-184 -60.5v65q88 0 119.5 43t31.5 178v205q0 70 -27 91.5t-99 21.5q-96 0 -127.5 -36.5t-31.5 -132.5v-299h-80v624h-65v57h65v68h80z" />
    <glyph glyph-name="afii10100" unicode="&#x453;" horiz-adv-x="434" 
d="M65 524h353v-65h-273v-459h-80v524zM364 695l-119 -128h-68l87 128h100z" />
    <glyph glyph-name="afii10101" unicode="&#x454;" horiz-adv-x="537" 
d="M418 160h78q-5 -94 -51 -131t-175 -37q-134 0 -179.5 56.5t-45.5 216.5q0 157 47.5 213t175.5 56q56 0 90 -5t64.5 -21t45.5 -49t19 -86h-75q-8 60 -35.5 78t-108.5 18q-86 0 -114.5 -33t-28.5 -125h258v-65h-258q0 -118 26.5 -153.5t117.5 -35.5q86 0 115 20.5t34 82.5z
" />
    <glyph glyph-name="afii10102" unicode="&#x455;" horiz-adv-x="537" 
d="M50 167h80q0 -69 28.5 -89.5t110.5 -20.5q88 0 116 17.5t28 77.5q0 40 -31.5 59t-108.5 25q-43 3 -69 6.5t-59 13t-51 24.5t-31 41.5t-13 63.5q0 82 46 115.5t161 33.5q41 0 70 -2t60 -9.5t50 -21t31 -36.5t12 -56v-19h-80q0 44 -26 61.5t-109 17.5q-82 0 -108.5 -15.5
t-26.5 -60.5q0 -36 10 -52t41 -24.5t100 -11.5q105 -5 158.5 -39t53.5 -119q0 -92 -50 -123.5t-170 -31.5q-62 0 -100 6t-68 24.5t-42.5 53.5t-12.5 91z" />
    <glyph glyph-name="afii10103" unicode="&#x456;" horiz-adv-x="210" 
d="M145 749v-86h-80v86h80zM145 524v-524h-80v524h80z" />
    <glyph glyph-name="afii10104" unicode="&#x457;" horiz-adv-x="211" 
d="M214 665v-86h-80v86h80zM73 665v-86h-80v86h80zM142 524v-524h-80v524h80z" />
    <glyph glyph-name="afii10105" unicode="&#x458;" horiz-adv-x="210" 
d="M145 750v-86h-80v86h80zM65 524h80v-573q0 -71 -25 -113t-92 -42q-22 0 -38 5v55q6 -3 11 -3q18 0 30.5 5.5t19 13.5t10 23t4 25.5t0.5 30.5v573z" />
    <glyph glyph-name="afii10106" unicode="&#x459;" horiz-adv-x="817" 
d="M101 524h350v-213h168q153 0 153 -155q0 -81 -42 -118.5t-110 -37.5h-249v459h-190v-308q0 -151 -126 -151h-39v65h12q44 0 58.5 16t14.5 72v371zM451 246v-181h142q56 0 77.5 19.5t21.5 71.5q0 53 -22 71.5t-81 18.5h-138z" />
    <glyph glyph-name="afii10107" unicode="&#x45a;" horiz-adv-x="817" 
d="M145 524v-213h226v213h80v-213h168q153 0 153 -155q0 -81 -42 -118.5t-110 -37.5h-249v246h-226v-246h-80v524h80zM451 246v-181h142q56 0 77.5 19.5t21.5 71.5q0 53 -22 71.5t-81 18.5h-138z" />
    <glyph glyph-name="afii10108" unicode="&#x45b;" horiz-adv-x="575" 
d="M145 749v-68h200v-57h-200v-159q24 43 63.5 55.5t103.5 12.5q111 0 154.5 -40.5t43.5 -152.5v-340h-80v355q0 70 -27 91.5t-99 21.5q-96 0 -127.5 -36.5t-31.5 -132.5v-299h-80v624h-65v57h65v68h80z" />
    <glyph glyph-name="afii10109" unicode="&#x45c;" horiz-adv-x="506" 
d="M145 524v-213h31l189 213h96l-223 -241l264 -283h-104l-222 246h-31v-246h-80v524h80zM386 695l-119 -128h-68l87 128h100z" />
    <glyph glyph-name="afii10110" unicode="&#x45e;" horiz-adv-x="469" 
d="M373 524h81l-161 -594q-26 -96 -61.5 -131.5t-97.5 -35.5q-26 0 -45 6v64q18 -5 30 -5q45 0 64.5 29.5t50.5 142.5h-34l-191 524h80l164 -466zM310 665h48q0 -57 -25.5 -77.5t-91.5 -20.5t-92 20.5t-26 77.5h48q0 -31 15.5 -40.5t54.5 -9.5t54 9.5t15 40.5z" />
    <glyph glyph-name="afii10193" unicode="&#x45f;" horiz-adv-x="565" 
d="M145 524v-459h275v459h80v-524h-181v-149h-73v149h-181v524h80z" />
    <glyph glyph-name="afii10050" unicode="&#x490;" horiz-adv-x="545" 
d="M71 749h380v133h83v-206h-380v-676h-83v749z" />
    <glyph glyph-name="afii10098" unicode="&#x491;" horiz-adv-x="434" 
d="M65 524h288v92h65v-157h-273v-459h-80v524z" />
    <glyph glyph-name="endash" unicode="&#x2013;" horiz-adv-x="687" 
d="M44 405h599v-47h-599v47z" />
    <glyph glyph-name="emdash" unicode="&#x2014;" horiz-adv-x="783" 
d="M0 405h783v-47h-783v47z" />
    <glyph glyph-name="quoteleft" unicode="&#x2018;" horiz-adv-x="202" 
d="M48 538v109q0 52 15.5 77.5t61.5 25.5q12 0 22 -2v-42q-28 -1 -38.5 -13t-10.5 -40v-14h38v-101h-88z" />
    <glyph glyph-name="quoteright" unicode="&#x2019;" horiz-adv-x="196" 
d="M147 749v-110q0 -52 -15.5 -77.5t-61.5 -25.5q-12 0 -22 2v42q28 1 38.5 13t10.5 40v15h-39v101h89z" />
    <glyph glyph-name="quotesinglbase" unicode="&#x201a;" horiz-adv-x="227" 
d="M159 101v-110q0 -52 -15.5 -77.5t-61.5 -25.5q-12 0 -22 2v42q28 1 38.5 13t10.5 40v15h-39v101h89z" />
    <glyph glyph-name="quotedblleft" unicode="&#x201c;" horiz-adv-x="350" 
d="M205 538v109q0 51 16 77t62 26q12 0 22 -2v-42q-28 -1 -39 -13t-11 -40v-14h39v-101h-89zM47 538v109q0 52 15.5 77.5t62.5 25.5q14 0 22 -2v-42q-28 -1 -39 -13t-11 -40v-14h38v-101h-88z" />
    <glyph glyph-name="quotedblright" unicode="&#x201d;" horiz-adv-x="350" 
d="M148 749v-110q0 -52 -15.5 -77.5t-61.5 -25.5q-12 0 -22 2v42q28 1 38.5 13t10.5 40v15h-39v101h89zM306 749v-110q0 -52 -15.5 -77.5t-61.5 -25.5q-12 0 -22 2v42q28 1 38.5 13t10.5 40v15h-39v101h89z" />
    <glyph glyph-name="quotedblbase" unicode="&#x201e;" horiz-adv-x="358" 
d="M154 101v-110q0 -52 -15.5 -77.5t-61.5 -25.5q-12 0 -22 2v42q28 1 38.5 13t10.5 40v15h-39v101h89zM311 101v-110q0 -52 -15.5 -77.5t-61.5 -25.5q-12 0 -22 2v42q28 1 38.5 13t10.5 40v15h-39v101h89z" />
    <glyph glyph-name="dagger" unicode="&#x2020;" horiz-adv-x="623" 
d="M270 749h83v-245h200v-73h-200v-658h-83v658h-200v73h200v245z" />
    <glyph glyph-name="daggerdbl" unicode="&#x2021;" horiz-adv-x="674" 
d="M53 407h88v92q0 78 13.5 128t44.5 79t75 40t112 11t109 -11t65 -39.5t32 -69t8 -108.5h-83q0 91 -27 123t-100 32q-93 0 -129.5 -31t-36.5 -108v-138h233v-73h-233v-65q0 -95 -15.5 -139.5t-51.5 -56.5h401v-73h-515v73q47 12 72.5 57.5t25.5 145.5v58h-88v73z" />
    <glyph glyph-name="bullet" unicode="&#x2022;" horiz-adv-x="674" 
d="M225 321q0 45 30.5 76.5t75.5 31.5q46 0 77.5 -31.5t31.5 -76.5t-31 -76t-77 -31q-45 0 -76 31t-31 76z" />
    <glyph glyph-name="ellipsis" unicode="&#x2026;" horiz-adv-x="671" 
d="M156 101v-101h-89v101h89zM380 101v-101h-89v101h89zM604 101v-101h-89v101h89z" />
    <glyph glyph-name="perthousand" unicode="&#x2030;" horiz-adv-x="1297" 
d="M193 750q100 0 131 -28.5t31 -111.5v-97q0 -83 -31 -111.5t-131 -28.5q-99 0 -131 28.5t-32 110.5v97q0 84 31.5 112.5t131.5 28.5zM193 709q-61 0 -87.5 -15.5t-26.5 -71.5v-129q0 -52 25.5 -65.5t88.5 -13.5q33 0 49 1.5t33.5 9.5t24 25.5t6.5 47.5v124q0 57 -25.5 72
t-87.5 15zM730 750l-508 -750h-51l505 750h54zM709 377q100 0 131 -28.5t31 -111.5v-97q0 -83 -31 -111.5t-131 -28.5q-99 0 -131 28.5t-32 110.5v97q0 84 31.5 112.5t131.5 28.5zM709 336q-61 0 -87.5 -15.5t-26.5 -71.5v-129q0 -52 25.5 -65.5t88.5 -13.5q33 0 49 1.5
t33.5 9.5t24 25.5t6.5 47.5v124q0 57 -25.5 72t-87.5 15zM1100 377q100 0 131 -28.5t31 -111.5v-97q0 -83 -31 -111.5t-131 -28.5q-99 0 -131 28.5t-32 110.5v97q0 84 31.5 112.5t131.5 28.5zM1100 336q-61 0 -87.5 -15.5t-26.5 -71.5v-129q0 -52 25.5 -65.5t88.5 -13.5
q33 0 49 1.5t33.5 9.5t24 25.5t6.5 47.5v124q0 57 -25.5 72t-87.5 15z" />
    <glyph glyph-name="guilsinglleft" unicode="&#x2039;" horiz-adv-x="320" 
d="M192 575l57 -35l-118 -251l131 -253l-55 -36l-150 289z" />
    <glyph glyph-name="guilsinglright" unicode="&#x203a;" horiz-adv-x="308" 
d="M128 575l134 -286l-151 -289l-54 36l130 253l-118 251z" />
    <glyph glyph-name="Euro" unicode="&#x20ac;" horiz-adv-x="687" 
d="M634 693v-91q-74 76 -199 76q-101 0 -160.5 -55.5t-75.5 -139.5h383l-26 -67h-368q-2 -18 -2 -37q0 -22 2 -42h336l-26 -67h-299q18 -91 79 -145t159 -54q116 0 197 77v-92q-27 -25 -81.5 -44t-123.5 -19q-128 0 -208.5 70.5t-103.5 206.5h-87l27 67h53q-2 20 -2 42
q0 8 0.5 20.5t0.5 16.5h-79l27 67h59q23 120 99.5 197t213.5 77q66 0 121 -19t84 -45z" />
    <glyph glyph-name="afii61352" unicode="&#x2116;" horiz-adv-x="1200" 
d="M765 117h358v-44h-358v44zM945 514q89 0 118 -32.5t29 -128.5v-18q0 -35 -2 -56.5t-10 -42.5t-23 -32t-41 -17.5t-65 -6.5q-84 0 -119 32.5t-35 116.5v28q0 94 28.5 125.5t119.5 31.5zM948 468q-51 0 -72.5 -22.5t-21.5 -73.5v-45q0 -62 16 -81.5t67 -19.5q66 0 82 17.5
t16 85.5v41q0 54 -15 76t-72 22zM70 749h132l422 -684v684h83v-749h-132l-422 677v-677h-83v749z" />
    <glyph glyph-name="trademark" unicode="&#x2122;" horiz-adv-x="826" 
d="M142 352v355h-129v41h301v-41h-128v-355h-44zM427 748l140 -339l141 339h72v-396h-44v364l-150 -364h-38l-150 361v-361h-44v396h73z" />
    <glyph glyph-name="hyphenminus" horiz-adv-x="579" 
d="M40 405h493v-47h-493v47z" />
    </font>
</defs>
</svg>
